<svg version="1.1" xmlns="http://www.w3.org/2000/svg" xmlns:xlink="http://www.w3.org/1999/xlink" width="400" height="400" viewBox="0,0,256,256"><g fill="none" fill-rule="evenodd" stroke="none" stroke-width="1" stroke-linecap="butt" stroke-linejoin="miter" stroke-miterlimit="10" stroke-dasharray="" stroke-dashoffset="0" font-family="none" font-weight="none" font-size="none" text-anchor="none" style="mix-blend-mode: normal"><g transform="translate(0,-0.20888) scale(0.64,0.64)"><g id="svgg"><path d="M8.8,1.6c0,0.667 -0.267,0.8 -1.6,0.8c-1.333,0 -1.6,0.133 -1.6,0.8c0,0.533 -0.267,0.8 -0.8,0.8c-0.533,0 -0.8,0.267 -0.8,0.8c0,0.533 -0.267,0.8 -0.8,0.8c-0.444,0 -0.8,0.267 -0.8,0.6c0,0.33 -0.36,0.96 -0.8,1.4c-0.533,0.533 -0.8,1.333 -0.8,2.4c0,0.88 -0.18,1.6 -0.4,1.6c-0.248,0 -0.4,2.133 -0.4,5.6c0,3.467 0.152,5.6 0.4,5.6c0.22,0 0.4,0.63 0.4,1.4c0,1.133 0.152,1.4 0.8,1.4c0.542,0 0.8,0.267 0.8,0.826c0,1.019 0.693,2.374 1.214,2.374c0.212,0 0.746,0.36 1.186,0.8c0.44,0.44 1.16,0.8 1.6,0.8c0.533,0 0.8,0.267 0.8,0.8c0,0.652 0.267,0.8 1.437,0.8c0.831,0 1.866,0.337 2.454,0.8c0.997,0.784 1.623,0.8 31.316,0.8c29.963,0 30.302,0.009 30.509,0.8c0.186,0.711 0.546,0.8 3.247,0.8c2.391,0 3.037,0.124 3.037,0.582c0,0.345 0.554,0.686 1.363,0.837c0.869,0.163 1.436,0.533 1.563,1.019c0.109,0.419 0.486,0.762 0.837,0.762c0.445,0 0.637,0.372 0.637,1.237c0,0.901 0.217,1.295 0.8,1.447c0.508,0.133 0.8,0.546 0.8,1.13c0,1.337 0.405,2.186 1.043,2.186c0.373,0 0.557,0.475 0.557,1.437c0,1.101 0.187,1.487 0.8,1.647c0.673,0.176 0.8,0.546 0.8,2.336c0,1.775 0.132,2.168 0.8,2.38c0.668,0.212 0.8,0.605 0.8,2.38c0,1.79 0.127,2.16 0.8,2.336c0.675,0.176 0.8,0.546 0.8,2.358c0,1.181 0.246,2.503 0.546,2.937c0.3,0.434 0.675,1.835 0.832,3.114c0.175,1.426 0.505,2.409 0.854,2.543c0.37,0.142 0.568,0.824 0.568,1.959c0,1.185 0.241,1.971 0.752,2.457c0.533,0.507 0.804,1.458 0.929,3.26c0.127,1.835 0.364,2.649 0.848,2.92c0.468,0.262 0.671,0.903 0.671,2.123c0,2.128 0.306,3.013 1.043,3.013c0.408,0 0.557,0.582 0.557,2.173c0,1.822 0.129,2.214 0.8,2.427c0.691,0.219 0.8,0.605 0.8,2.824c0,2.136 0.135,2.653 0.8,3.069c0.638,0.398 0.8,0.933 0.8,2.641c0,1.804 0.126,2.174 0.8,2.35c0.683,0.179 0.8,0.546 0.8,2.501c0,1.783 0.177,2.452 0.8,3.015c0.613,0.555 0.8,1.232 0.8,2.899c0,1.839 0.124,2.208 0.8,2.385c0.686,0.179 0.8,0.546 0.8,2.563c0,1.745 0.144,2.353 0.557,2.353c0.771,0 1.043,0.898 1.043,3.445c0,1.569 0.168,2.245 0.6,2.41c0.333,0.128 0.6,0.723 0.6,1.338c0,1.947 0.483,3.607 1.05,3.607c0.398,0 0.55,0.592 0.55,2.146c0,1.54 0.226,2.433 0.8,3.163c0.44,0.56 0.802,1.619 0.805,2.354c0.008,1.935 0.407,3.137 1.042,3.137c0.405,0 0.553,0.599 0.553,2.237c0,1.901 0.12,2.269 0.8,2.447c0.686,0.179 0.8,0.546 0.8,2.563c0,1.82 0.181,2.534 0.8,3.153c0.585,0.585 0.8,1.333 0.8,2.786c0,1.576 0.165,2.074 0.8,2.414c0.647,0.346 0.8,0.838 0.8,2.567c0,1.803 0.126,2.173 0.8,2.349c0.68,0.178 0.8,0.546 0.8,2.447c0,1.704 0.191,2.428 0.8,3.037c0.609,0.609 0.8,1.333 0.8,3.037c0,1.901 0.12,2.269 0.8,2.447c0.672,0.176 0.8,0.546 0.8,2.32c0,1.412 0.18,2.18 0.545,2.32c0.349,0.133 0.646,1.236 0.826,3.065c0.189,1.909 0.472,2.929 0.855,3.077c0.352,0.134 0.576,0.784 0.579,1.677c0.008,2.048 0.395,3.257 1.042,3.257c0.404,0 0.553,0.594 0.553,2.2c0,1.667 0.194,2.394 0.8,3c0.609,0.609 0.8,1.333 0.8,3.037c0,1.901 0.12,2.269 0.8,2.447c0.677,0.177 0.8,0.546 0.8,2.4c0,1.854 0.123,2.223 0.8,2.4c0.704,0.184 0.8,0.546 0.8,3c0,2.454 0.096,2.816 0.8,3c0.686,0.179 0.8,0.546 0.8,2.563c0,2.086 0.091,2.353 0.8,2.353c0.711,0 0.8,0.267 0.8,2.4c0,1.867 0.178,2.578 0.8,3.2c0.604,0.604 0.8,1.333 0.8,2.973c0,1.822 0.129,2.214 0.8,2.427c0.671,0.213 0.8,0.605 0.8,2.427c0,1.906 0.098,2.173 0.8,2.173c0.728,0 0.8,0.267 0.8,2.957c0,2.114 0.154,3.017 0.54,3.165c0.31,0.119 0.648,1.117 0.793,2.342c0.141,1.194 0.521,2.332 0.86,2.58c0.371,0.272 0.607,1.079 0.607,2.081c0,1.636 0.674,3.675 1.215,3.675c0.157,0 0.37,1.017 0.473,2.26c0.122,1.472 0.418,2.429 0.85,2.744c0.47,0.344 0.662,1.091 0.662,2.578c0,1.756 0.129,2.127 0.8,2.302c0.675,0.177 0.8,0.546 0.8,2.363c0,1.62 0.198,2.351 0.8,2.953c0.559,0.559 0.8,1.333 0.8,2.567c0,2.147 0.304,3.033 1.043,3.033c0.41,0 0.557,0.592 0.557,2.237c0,1.901 0.12,2.269 0.8,2.447c0.683,0.179 0.8,0.546 0.8,2.501c0,1.783 0.177,2.452 0.8,3.015c0.613,0.555 0.8,1.232 0.8,2.899c0,1.839 0.124,2.208 0.8,2.385c0.686,0.179 0.8,0.546 0.8,2.563c0,1.745 0.144,2.353 0.557,2.353c0.721,0 1.043,0.879 1.043,2.845c0,1.036 0.207,1.659 0.6,1.81c0.406,0.156 0.6,0.793 0.6,1.969c0,1.784 0.667,3.776 1.264,3.776c0.185,0 0.336,0.696 0.336,1.546c0,0.94 0.313,1.945 0.8,2.563c0.45,0.572 0.8,1.623 0.8,2.4c0,0.777 0.35,1.829 0.8,2.4c0.44,0.56 0.8,1.394 0.8,1.854c0,0.46 0.36,1.197 0.8,1.637c0.44,0.44 0.8,1.07 0.8,1.4c0,0.333 0.356,0.6 0.8,0.6c0.652,0 0.8,0.267 0.8,1.437c0,1.101 0.187,1.487 0.8,1.647c0.443,0.116 0.8,0.546 0.8,0.963c0,0.486 0.283,0.753 0.8,0.753c0.624,0 0.8,0.267 0.8,1.213c0,0.735 0.248,1.307 0.631,1.454c0.346,0.133 0.792,0.668 0.99,1.188c0.197,0.52 0.634,0.945 0.969,0.945c0.343,0 0.61,0.35 0.61,0.8c0,0.533 0.267,0.8 0.8,0.8c0.533,0 0.8,0.267 0.8,0.8c0,0.44 0.172,0.8 0.382,0.8c0.481,0 2.418,1.915 2.418,2.391c0,0.195 0.36,0.469 0.8,0.609c0.44,0.14 0.8,0.512 0.8,0.827c0,0.315 0.36,0.573 0.8,0.573c0.533,0 0.8,0.267 0.8,0.8c0,0.533 0.267,0.8 0.8,0.8c0.452,0 0.8,0.267 0.8,0.613c0,0.336 0.315,0.725 0.7,0.864c0.385,0.138 1.022,0.582 1.416,0.987c0.393,0.405 1.158,0.736 1.7,0.736c0.717,0 0.984,0.217 0.984,0.8c0,0.533 0.267,0.8 0.8,0.8c0.44,0 0.8,0.251 0.8,0.557c0,0.645 0.852,1.043 2.233,1.043c0.7,0 0.967,0.221 0.967,0.8c0,0.642 0.267,0.8 1.353,0.8c1.017,0 1.406,0.199 1.563,0.8c0.115,0.44 0.513,0.8 0.883,0.8c0.371,0 1.132,0.36 1.692,0.8c0.559,0.44 1.623,0.8 2.363,0.8c0.875,0 1.346,0.192 1.346,0.55c0,0.571 1.663,1.05 3.65,1.05c0.709,0 1.15,0.211 1.15,0.55c0,0.832 1.871,1.05 9.001,1.05c5.291,0 6.594,0.112 6.999,0.6c0.44,0.53 -0.394,0.6 -7.118,0.6c-7.823,0 -8.882,0.118 -8.882,0.992c0,0.317 -0.771,0.58 -2.067,0.705c-1.263,0.121 -2.253,0.452 -2.544,0.851c-0.263,0.358 -0.772,0.652 -1.133,0.652c-0.389,0 -0.656,0.325 -0.656,0.8c0,0.652 -0.267,0.8 -1.437,0.8c-1.078,0 -1.488,0.191 -1.637,0.763c-0.11,0.42 -0.543,0.853 -0.963,0.963c-0.42,0.109 -0.763,0.486 -0.763,0.837c0,0.35 -0.258,0.637 -0.573,0.637c-0.315,0 -0.687,0.36 -0.827,0.8c-0.14,0.44 -0.496,0.8 -0.792,0.8c-0.316,0 -0.649,0.661 -0.808,1.6c-0.166,0.984 -0.488,1.6 -0.835,1.6c-0.311,0 -0.565,0.317 -0.565,0.704c0,0.387 -0.36,0.928 -0.8,1.203c-0.602,0.376 -0.8,0.933 -0.8,2.25c0,1.413 -0.154,1.79 -0.8,1.959c-0.773,0.202 -0.8,0.546 -0.8,10.247c0,9.77 0.021,10.037 0.8,10.037c0.667,0 0.8,0.267 0.8,1.604c0,1.109 0.247,1.815 0.8,2.289c0.44,0.377 0.8,1.095 0.8,1.596c0,0.543 0.242,0.911 0.6,0.911c0.33,0 0.6,0.225 0.6,0.5c0.001,0.275 0.451,1.023 1,1.662c0.55,0.639 1,1.404 1,1.7c0,0.296 0.258,0.538 0.573,0.538c0.315,0 0.687,0.36 0.827,0.8c0.14,0.44 0.562,0.8 0.938,0.8c0.376,0 0.992,0.36 1.369,0.8c0.377,0.44 1.047,0.8 1.489,0.8c0.537,0 0.804,0.265 0.804,0.8c0,0.667 0.267,0.8 1.6,0.8c1.333,0 1.6,0.133 1.6,0.8c0,0.667 0.267,0.8 1.6,0.8c0.88,0 1.6,0.18 1.6,0.4c0,0.255 3.333,0.4 9.2,0.4c5.867,0 9.2,-0.145 9.2,-0.4c0,-0.22 1.007,-0.4 2.237,-0.4c1.901,0 2.269,-0.12 2.447,-0.8c0.148,-0.566 0.546,-0.8 1.359,-0.8c0.717,0 1.338,-0.301 1.65,-0.8c0.275,-0.44 0.816,-0.8 1.203,-0.8c0.437,0 0.704,-0.303 0.704,-0.8c0,-0.533 0.267,-0.8 0.8,-0.8c0.533,0 0.8,-0.267 0.8,-0.8c0,-0.533 0.267,-0.8 0.8,-0.8c0.444,0 0.8,-0.267 0.8,-0.6c0,-0.33 0.276,-0.6 0.613,-0.6c0.336,0 0.73,-0.315 0.873,-0.7c0.144,-0.385 0.588,-0.935 0.988,-1.223c0.399,-0.287 0.726,-0.763 0.726,-1.057c0,-0.294 0.27,-0.638 0.6,-0.765c0.343,-0.131 0.6,-0.728 0.6,-1.396c0,-0.829 0.231,-1.226 0.8,-1.375c0.68,-0.178 0.8,-0.546 0.8,-2.447c0,-1.97 0.095,-2.237 0.8,-2.237c1.25,0 1.25,-16.603 0,-17c-0.66,-0.21 -0.8,-0.605 -0.8,-2.264c0,-1.674 -0.134,-2.046 -0.8,-2.22c-0.44,-0.115 -0.798,-0.413 -0.797,-0.663c0.007,-0.901 -1.804,-4.253 -2.297,-4.253c-0.278,0 -0.506,-0.287 -0.506,-0.637c0,-0.351 -0.36,-0.732 -0.8,-0.847c-0.443,-0.116 -0.8,-0.546 -0.8,-0.963c0,-0.486 -0.283,-0.753 -0.8,-0.753c-0.533,0 -0.8,-0.267 -0.8,-0.8c0,-0.533 -0.267,-0.8 -0.8,-0.8c-0.533,0 -0.8,-0.267 -0.8,-0.8c0,-0.533 -0.267,-0.8 -0.8,-0.8c-0.44,0 -0.8,-0.251 -0.8,-0.557c0,-0.638 -0.849,-1.043 -2.186,-1.043c-0.584,0 -0.997,-0.292 -1.13,-0.8c-0.159,-0.61 -0.546,-0.8 -1.627,-0.8c-0.798,0 -1.557,-0.245 -1.737,-0.562c-0.176,-0.308 -0.77,-0.644 -1.32,-0.745c-0.55,-0.101 16.28,-0.182 37.4,-0.179c21.12,0.003 37.905,0.081 37.3,0.173c-0.611,0.092 -1.1,0.421 -1.1,0.74c0,0.391 -0.456,0.573 -1.437,0.573c-1.101,0 -1.487,0.187 -1.647,0.8c-0.15,0.574 -0.546,0.8 -1.4,0.8c-0.854,0 -1.25,0.226 -1.4,0.8c-0.116,0.443 -0.546,0.8 -0.963,0.8c-0.472,0 -0.753,0.282 -0.753,0.755c0,0.549 -0.389,0.829 -1.421,1.023c-0.782,0.146 -1.533,0.557 -1.669,0.914c-0.137,0.356 -0.578,0.976 -0.979,1.377c-0.402,0.402 -0.731,1.091 -0.731,1.531c0,0.533 -0.267,0.8 -0.8,0.8c-0.517,0 -0.8,0.267 -0.8,0.753c0,0.417 -0.357,0.847 -0.8,0.963c-0.613,0.16 -0.8,0.546 -0.8,1.647c0,1.17 -0.148,1.437 -0.8,1.437c-0.646,0 -0.8,0.267 -0.8,1.386c0,0.976 -0.236,1.512 -0.8,1.814c-1.248,0.668 -1.248,19.558 0,19.884c0.606,0.159 0.8,0.546 0.8,1.6c0,1.054 0.194,1.441 0.8,1.6c0.597,0.156 0.8,0.546 0.8,1.536c0,0.975 0.212,1.393 0.8,1.58c0.44,0.14 0.8,0.529 0.8,0.864c0,0.336 0.36,0.705 0.8,0.82c0.574,0.15 0.8,0.546 0.8,1.4c0,0.835 0.228,1.25 0.763,1.39c0.42,0.11 0.853,0.543 0.963,0.963c0.109,0.42 0.486,0.763 0.837,0.763c0.35,0 0.997,0.36 1.437,0.8c0.44,0.44 1.16,0.8 1.6,0.8c0.533,0 0.8,0.267 0.8,0.8c0,0.642 0.267,0.8 1.353,0.8c1.017,0 1.406,0.199 1.563,0.8c0.178,0.68 0.546,0.8 2.447,0.8c1.23,0 2.237,0.18 2.237,0.4c0,0.255 3.333,0.4 9.2,0.4c5.867,0 9.2,-0.145 9.2,-0.4c0,-0.22 0.737,-0.4 1.637,-0.4c1.301,0 1.681,-0.164 1.847,-0.8c0.157,-0.601 0.546,-0.8 1.563,-0.8c1.086,0 1.353,-0.158 1.353,-0.8c0,-0.533 0.267,-0.8 0.8,-0.8c0.44,0 1.16,-0.36 1.6,-0.8c0.44,-0.44 1.087,-0.8 1.437,-0.8c0.351,0 0.732,-0.36 0.847,-0.8c0.115,-0.44 0.464,-0.8 0.775,-0.8c0.311,0 0.682,-0.301 0.823,-0.669c0.141,-0.369 0.586,-0.999 0.987,-1.4c0.402,-0.402 0.731,-1.07 0.731,-1.484c0,-0.417 0.357,-0.847 0.8,-0.963c0.44,-0.115 0.8,-0.513 0.8,-0.883c0,-0.371 0.36,-1.132 0.8,-1.692c0.44,-0.559 0.8,-1.623 0.8,-2.363c0,-0.884 0.191,-1.346 0.557,-1.346c0.833,0 1.043,-0.923 1.043,-4.59c0,-2.586 0.133,-3.376 0.6,-3.555c0.804,-0.308 0.804,-3.188 0,-3.855c-0.445,-0.37 -0.6,-1.356 -0.6,-3.83c0,-3.155 -0.521,-5.37 -1.264,-5.37c-0.185,0 -0.338,-0.405 -0.341,-0.9c-0.01,-1.527 -0.462,-2.7 -1.042,-2.7c-0.304,0 -0.553,-0.36 -0.553,-0.8c0,-0.533 -0.267,-0.8 -0.8,-0.8c-0.609,0 -0.8,-0.267 -0.8,-1.116c0,-0.791 -0.467,-1.546 -1.6,-2.588c-0.88,-0.809 -1.6,-1.628 -1.6,-1.819c0,-0.192 -0.45,-0.554 -1,-0.804c-0.55,-0.251 -1,-0.632 -1,-0.846c0,-0.215 -0.613,-0.506 -1.363,-0.646c-0.869,-0.163 -1.436,-0.533 -1.563,-1.019c-0.109,-0.419 -0.493,-0.762 -0.853,-0.762c-0.36,0 -1.041,-0.36 -1.513,-0.8c-0.488,-0.455 -1.412,-0.8 -2.141,-0.8c-0.739,0 -1.374,-0.241 -1.5,-0.569c-0.12,-0.313 -0.634,-0.648 -1.143,-0.746c-0.508,-0.097 5.117,-0.201 12.5,-0.231c11.122,-0.045 13.556,-0.155 14.2,-0.641c0.542,-0.411 1.837,-0.591 4.302,-0.6c3.399,-0.013 4.649,-0.331 5.794,-1.476c0.296,-0.295 0.794,-0.537 1.109,-0.537c0.314,0 0.571,-0.258 0.571,-0.573c0,-0.315 0.341,-0.681 0.757,-0.813c0.416,-0.132 0.849,-0.595 0.962,-1.027c0.114,-0.433 0.493,-0.787 0.844,-0.787c0.457,0 0.637,-0.382 0.637,-1.353c0,-1.017 0.199,-1.406 0.8,-1.563c0.688,-0.18 0.8,-0.546 0.8,-2.604c0,-1.759 0.159,-2.455 0.6,-2.625c0.434,-0.166 0.6,-0.846 0.6,-2.455c0,-1.609 -0.166,-2.289 -0.6,-2.455c-0.447,-0.172 -0.6,-0.884 -0.6,-2.788c0,-2.024 -0.167,-2.724 -0.8,-3.357c-0.44,-0.44 -0.8,-1.16 -0.8,-1.6c0,-0.533 -0.267,-0.8 -0.8,-0.8c-0.533,0 -0.8,-0.267 -0.8,-0.8c0,-0.44 -0.227,-0.8 -0.504,-0.8c-0.277,0 -0.728,-0.36 -1.003,-0.8c-0.275,-0.44 -0.768,-0.8 -1.096,-0.8c-0.329,0 -0.597,-0.254 -0.597,-0.565c0,-0.347 -0.616,-0.669 -1.6,-0.835c-0.88,-0.149 -1.6,-0.498 -1.6,-0.776c0,-0.404 -12.63,-0.547 -63.056,-0.715c-57.65,-0.191 -63.088,-0.265 -63.42,-0.859c-0.301,-0.538 -1.117,-0.65 -4.744,-0.65c-3.847,0 -4.477,-0.097 -5.18,-0.8c-0.533,-0.533 -1.333,-0.8 -2.4,-0.8c-1.333,0 -1.6,-0.133 -1.6,-0.8c0,-0.533 -0.267,-0.8 -0.8,-0.8c-0.44,0 -1.16,-0.36 -1.6,-0.8c-0.44,-0.44 -1.07,-0.8 -1.4,-0.8c-0.33,0 -0.6,-0.287 -0.6,-0.637c0,-0.351 -0.36,-0.732 -0.8,-0.847c-0.44,-0.115 -0.8,-0.475 -0.8,-0.8c0,-0.325 -0.36,-0.685 -0.8,-0.8c-0.44,-0.115 -0.8,-0.475 -0.8,-0.8c0,-0.325 -0.36,-0.685 -0.8,-0.8c-0.44,-0.115 -0.8,-0.475 -0.8,-0.8c0,-0.325 -0.36,-0.685 -0.8,-0.8c-0.44,-0.115 -0.8,-0.475 -0.8,-0.8c0,-0.325 -0.36,-0.685 -0.8,-0.8c-0.441,-0.115 -0.8,-0.546 -0.8,-0.959c0,-0.413 -0.36,-0.975 -0.8,-1.25c-0.44,-0.275 -0.8,-0.906 -0.8,-1.403c0,-0.637 -0.236,-0.904 -0.8,-0.904c-0.652,0 -0.8,-0.267 -0.8,-1.437c0,-1.101 -0.187,-1.487 -0.8,-1.647c-0.627,-0.164 -0.8,-0.546 -0.8,-1.763c0,-1.02 -0.275,-1.828 -0.8,-2.353c-0.44,-0.44 -0.8,-1.16 -0.8,-1.6c0,-0.797 0.267,-0.8 65.437,-0.8c65.101,0 65.439,-0.004 65.647,-0.8c0.173,-0.662 0.546,-0.8 2.159,-0.8c1.517,0 2.061,-0.178 2.45,-0.8c0.275,-0.44 0.816,-0.8 1.203,-0.8c0.387,0 1.064,-0.36 1.504,-0.8c0.44,-0.44 1.087,-0.8 1.437,-0.8c0.351,0 0.732,-0.36 0.847,-0.8c0.115,-0.44 0.475,-0.8 0.8,-0.8c0.325,0 0.685,-0.36 0.8,-0.8c0.115,-0.44 0.446,-0.8 0.736,-0.8c0.289,0 0.635,-0.343 0.768,-0.763c0.133,-0.42 0.489,-0.858 0.79,-0.973c0.3,-0.115 0.665,-0.747 0.809,-1.404c0.144,-0.656 0.511,-1.289 0.815,-1.406c0.305,-0.116 0.674,-0.851 0.82,-1.633c0.153,-0.811 0.503,-1.421 0.818,-1.421c0.333,0 0.652,-0.632 0.806,-1.6c0.155,-0.965 0.474,-1.6 0.805,-1.6c0.374,0 0.549,-0.511 0.549,-1.6c0,-1.333 0.133,-1.6 0.8,-1.6c0.645,0 0.8,-0.267 0.8,-1.373c0,-1.022 0.205,-1.438 0.8,-1.627c0.588,-0.187 0.8,-0.605 0.8,-1.58c0,-0.99 0.203,-1.38 0.8,-1.536c0.606,-0.159 0.8,-0.546 0.8,-1.6c0,-1.054 0.194,-1.441 0.8,-1.6c0.613,-0.16 0.8,-0.546 0.8,-1.647c0,-0.962 0.184,-1.437 0.557,-1.437c0.612,0 1.043,-0.841 1.043,-2.033c0,-0.422 0.36,-1.127 0.8,-1.567c0.44,-0.44 0.8,-1.231 0.8,-1.757c0,-0.527 0.253,-1.055 0.562,-1.173c0.31,-0.119 0.693,-0.813 0.852,-1.543c0.16,-0.73 0.627,-1.756 1.038,-2.281c0.411,-0.525 0.748,-1.56 0.748,-2.3c0,-0.925 0.186,-1.346 0.595,-1.346c0.385,0 0.686,-0.565 0.851,-1.6c0.155,-0.965 0.474,-1.6 0.805,-1.6c0.374,0 0.549,-0.511 0.549,-1.6c0,-1.333 0.133,-1.6 0.8,-1.6c0.663,0 0.8,-0.267 0.8,-1.553c0,-1.217 0.173,-1.599 0.8,-1.763c0.606,-0.159 0.8,-0.546 0.8,-1.6c0,-1.054 0.194,-1.441 0.8,-1.6c0.613,-0.16 0.8,-0.546 0.8,-1.647c0,-0.962 0.184,-1.437 0.557,-1.437c0.612,0 1.043,-0.841 1.043,-2.033c0,-0.422 0.36,-1.127 0.8,-1.567c0.525,-0.525 0.8,-1.333 0.8,-2.353c0,-1.217 0.173,-1.599 0.8,-1.763c0.606,-0.159 0.8,-0.546 0.8,-1.6c0,-1.054 0.194,-1.441 0.8,-1.6c0.585,-0.153 0.8,-0.546 0.8,-1.459c0,-0.732 0.244,-1.344 0.589,-1.476c0.324,-0.125 0.707,-0.853 0.851,-1.62c0.143,-0.766 0.491,-1.481 0.771,-1.589c0.281,-0.107 0.623,-0.795 0.76,-1.528c0.138,-0.732 0.511,-1.548 0.829,-1.812c0.318,-0.264 0.692,-1.086 0.831,-1.826c0.139,-0.74 0.504,-1.554 0.811,-1.809c0.307,-0.255 0.558,-1.149 0.558,-1.987c0,-1.173 0.184,-1.583 0.8,-1.778c0.591,-0.188 0.8,-0.605 0.8,-1.6c0,-0.995 0.209,-1.412 0.8,-1.6c0.58,-0.184 0.8,-0.605 0.8,-1.531c0,-0.843 0.271,-1.446 0.8,-1.776c0.452,-0.283 0.8,-0.933 0.8,-1.496c0,-0.549 0.36,-1.357 0.8,-1.797c0.44,-0.44 0.8,-1.25 0.8,-1.8c0,-0.55 0.36,-1.36 0.8,-1.8c0.489,-0.489 0.8,-1.333 0.8,-2.173c0,-1.022 0.205,-1.438 0.8,-1.627c0.58,-0.184 0.8,-0.605 0.8,-1.531c0,-0.843 0.271,-1.446 0.8,-1.776c0.5,-0.312 0.8,-0.933 0.8,-1.654c0,-0.637 0.259,-1.253 0.578,-1.375c0.318,-0.122 0.704,-0.906 0.858,-1.743c0.154,-0.837 0.614,-1.95 1.022,-2.475c0.408,-0.525 0.742,-1.29 0.742,-1.7c0,-0.41 0.151,-0.746 0.336,-0.746c0.474,0 1.264,-1.859 1.264,-2.976c0,-0.516 0.27,-1.042 0.6,-1.169c0.365,-0.14 0.6,-0.745 0.6,-1.546c0,-0.883 0.263,-1.481 0.8,-1.816c0.51,-0.319 0.8,-0.933 0.8,-1.696c0,-0.664 0.357,-1.554 0.8,-1.997c0.533,-0.533 0.8,-1.333 0.8,-2.4c0,-1.333 0.133,-1.6 0.8,-1.6c0.663,0 0.8,-0.267 0.8,-1.553c0,-1.217 0.173,-1.599 0.8,-1.763c0.705,-0.184 0.8,-0.546 0.8,-3.047c0,-1.625 0.171,-2.837 0.4,-2.837c0.257,0 0.4,-3.867 0.4,-10.8c0,-6.933 -0.143,-10.8 -0.4,-10.8c-0.22,0 -0.4,-0.72 -0.4,-1.6c0,-1.333 -0.133,-1.6 -0.8,-1.6c-0.667,0 -0.8,-0.267 -0.8,-1.6c0,-1.333 -0.133,-1.6 -0.8,-1.6c-0.533,0 -0.8,-0.267 -0.8,-0.8c0,-0.44 -0.36,-1.16 -0.8,-1.6c-0.44,-0.44 -0.8,-1.087 -0.8,-1.437c0,-0.351 -0.36,-0.732 -0.8,-0.847c-0.44,-0.115 -0.8,-0.464 -0.8,-0.775c0,-0.311 -0.301,-0.682 -0.669,-0.823c-0.369,-0.141 -0.999,-0.586 -1.4,-0.987c-0.402,-0.402 -1.07,-0.731 -1.484,-0.731c-0.417,0 -0.847,-0.357 -0.963,-0.8c-0.115,-0.44 -0.513,-0.8 -0.883,-0.8c-0.371,0 -1.132,-0.36 -1.692,-0.8c-0.559,-0.44 -1.614,-0.8 -2.343,-0.8c-0.847,0 -1.468,-0.253 -1.718,-0.7c-0.356,-0.638 -1.465,-0.712 -12.52,-0.831c-9.967,-0.108 -12.185,-0.233 -12.448,-0.7c-0.498,-0.886 -181.685,-0.854 -182.025,0.031c-0.348,0.907 -36.162,0.907 -36.51,0c-0.127,-0.33 -0.461,-0.6 -0.743,-0.6c-0.353,0 -0.562,-0.882 -0.672,-2.837c-0.121,-2.147 -0.327,-2.929 -0.845,-3.219c-0.503,-0.282 -0.685,-0.91 -0.685,-2.36c0,-1.544 -0.175,-2.087 -0.8,-2.477c-0.635,-0.397 -0.8,-0.933 -0.8,-2.603c0,-1.571 -0.203,-2.307 -0.8,-2.904c-0.609,-0.609 -0.8,-1.333 -0.8,-3.037c0,-1.901 -0.12,-2.269 -0.8,-2.447c-0.677,-0.177 -0.8,-0.546 -0.8,-2.4c0,-1.854 -0.123,-2.223 -0.8,-2.4c-0.694,-0.182 -0.8,-0.546 -0.8,-2.759c0,-2.117 -0.136,-2.635 -0.8,-3.05c-0.638,-0.398 -0.8,-0.933 -0.8,-2.641c0,-1.804 -0.126,-2.174 -0.8,-2.35c-0.676,-0.177 -0.8,-0.546 -0.8,-2.375c0,-1.556 -0.169,-2.231 -0.6,-2.396c-0.385,-0.148 -0.6,-0.766 -0.6,-1.728c0,-1.641 -0.7,-4.017 -1.183,-4.017c-0.168,0 -0.409,-1.007 -0.536,-2.238c-0.127,-1.23 -0.492,-2.445 -0.811,-2.7c-0.319,-0.254 -0.671,-1.344 -0.783,-2.422c-0.126,-1.22 -0.445,-2.097 -0.845,-2.32c-0.401,-0.225 -0.642,-0.892 -0.642,-1.777c0,-1.081 -0.19,-1.468 -0.8,-1.627c-0.601,-0.157 -0.8,-0.546 -0.8,-1.563c0,-0.82 -0.315,-1.668 -0.8,-2.153c-0.44,-0.44 -0.8,-1.16 -0.8,-1.6c0,-0.533 -0.267,-0.8 -0.8,-0.8c-0.667,0 -0.8,-0.267 -0.8,-1.6c0,-1.333 -0.133,-1.6 -0.8,-1.6c-0.533,0 -0.8,-0.267 -0.8,-0.8c0,-0.44 -0.36,-1.16 -0.8,-1.6c-0.44,-0.44 -0.8,-1.087 -0.8,-1.437c0,-0.351 -0.343,-0.728 -0.763,-0.837c-0.42,-0.11 -0.853,-0.543 -0.963,-0.963c-0.109,-0.42 -0.486,-0.763 -0.837,-0.763c-0.35,0 -0.637,-0.194 -0.637,-0.431c0,-0.56 -2.209,-2.769 -2.769,-2.769c-0.237,0 -0.431,-0.27 -0.431,-0.6c0,-0.33 -0.264,-0.6 -0.586,-0.6c-0.322,0 -0.779,-0.36 -1.014,-0.8c-0.28,-0.524 -0.838,-0.8 -1.614,-0.8c-0.919,0 -1.186,-0.18 -1.186,-0.8c0,-0.533 -0.267,-0.8 -0.8,-0.8c-0.44,0 -1.16,-0.36 -1.6,-0.8c-0.44,-0.44 -1.16,-0.8 -1.6,-0.8c-0.44,0 -1.16,-0.36 -1.6,-0.8c-0.503,-0.503 -1.333,-0.8 -2.237,-0.8c-1.101,0 -1.487,-0.187 -1.647,-0.8c-0.176,-0.672 -0.546,-0.8 -2.316,-0.8c-1.77,0 -2.14,-0.128 -2.316,-0.8c-0.33,-1.263 -77.884,-1.263 -77.884,0M213.2,139.8v12.6h-26.6c-24.072,0 -26.6,-0.061 -26.6,-0.637c0,-0.351 -0.36,-0.732 -0.8,-0.847c-0.684,-0.179 -0.8,-0.546 -0.8,-2.534c0,-1.425 -0.21,-2.535 -0.543,-2.868c-0.299,-0.299 -0.67,-1.557 -0.825,-2.795c-0.157,-1.254 -0.512,-2.341 -0.803,-2.452c-0.296,-0.114 -0.608,-1.106 -0.723,-2.301c-0.114,-1.193 -0.458,-2.288 -0.796,-2.535c-0.358,-0.262 -0.67,-1.347 -0.785,-2.727c-0.119,-1.439 -0.461,-2.592 -0.919,-3.098c-0.725,-0.801 -0.712,-0.806 2.169,-0.806c2.563,0 2.924,-0.093 3.109,-0.8c0.207,-0.79 0.546,-0.8 27.563,-0.8h27.353v12.6M274.4,139.8v12.6h-18.8h-18.8v-12.6v-12.6h18.8h18.8v12.6M364.8,128.138c0,0.516 -0.36,1.264 -0.8,1.662c-0.527,0.477 -0.8,1.232 -0.8,2.215c0,1.155 -0.18,1.539 -0.8,1.701c-0.613,0.16 -0.8,0.546 -0.8,1.647c0,1.006 -0.179,1.437 -0.595,1.437c-0.385,0 -0.686,0.565 -0.851,1.6c-0.155,0.965 -0.474,1.6 -0.805,1.6c-0.363,0 -0.549,0.486 -0.549,1.437c0,1.101 -0.187,1.487 -0.8,1.647c-0.627,0.164 -0.8,0.546 -0.8,1.763c0,1.061 -0.177,1.553 -0.557,1.553c-0.72,0 -1.043,0.878 -1.043,2.833c0,1.3 -0.136,1.567 -0.8,1.567c-0.533,0 -0.8,0.267 -0.8,0.8c0,0.792 -0.267,0.8 -28.2,0.8h-28.2v-12.6v-12.6h33.6h33.6v0.938M213.2,186.604v11.004l-19.5,-0.104l-19.5,-0.104l-0.128,-1c-0.071,-0.55 -0.356,-1.18 -0.634,-1.4c-0.278,-0.22 -0.627,-1.3 -0.775,-2.4c-0.147,-1.1 -0.537,-2.2 -0.866,-2.444c-0.362,-0.269 -0.597,-1.096 -0.597,-2.1c0,-1.083 -0.258,-1.914 -0.746,-2.402c-0.487,-0.487 -0.811,-1.527 -0.932,-2.994c-0.103,-1.236 -0.468,-2.565 -0.811,-2.954c-0.343,-0.388 -0.694,-1.471 -0.778,-2.406l-0.154,-1.7h22.71h22.711v11.004M274.4,186.6v11h-18.8h-18.8v-11v-11h18.8h18.8v11M342.8,176.357c0,0.417 -0.27,0.861 -0.6,0.988c-0.377,0.144 -0.6,0.756 -0.6,1.642c0,1.146 -0.151,1.413 -0.8,1.413c-0.663,0 -0.8,0.267 -0.8,1.553c0,1.217 -0.173,1.599 -0.8,1.763c-0.606,0.159 -0.8,0.546 -0.8,1.6c0,1.054 -0.194,1.441 -0.8,1.6c-0.613,0.16 -0.8,0.546 -0.8,1.647c0,0.962 -0.184,1.437 -0.557,1.437c-0.66,0 -1.043,0.857 -1.043,2.336c0,0.638 -0.324,1.274 -0.8,1.571c-0.583,0.364 -0.8,0.933 -0.8,2.096v1.597h-18h-18v-11v-11h22.6c21.908,0 22.6,0.023 22.6,0.757M213.2,233.6v12.4h-9.429c-7.847,0 -9.529,-0.101 -10.028,-0.6c-0.33,-0.33 -1.262,-0.602 -2.072,-0.605c-2.388,-0.009 -3.271,-0.385 -3.271,-1.392c0,-1.7 -0.5,-3.403 -0.999,-3.403c-0.309,0 -0.575,-0.788 -0.698,-2.067c-0.121,-1.263 -0.452,-2.253 -0.851,-2.544c-0.421,-0.309 -0.652,-1.064 -0.652,-2.137c0,-1.165 -0.239,-1.864 -0.8,-2.345c-0.612,-0.524 -0.8,-1.18 -0.8,-2.796c0,-1.578 -0.202,-2.313 -0.8,-2.911c-0.533,-0.533 -0.8,-1.333 -0.8,-2.4v-1.6h15.6h15.6v12.4M274.4,233.6v12.4h-18.8h-18.8v-12.4v-12.4h18.8h18.8v12.4M321.2,222.8c0,1.333 -0.133,1.6 -0.8,1.6c-0.645,0 -0.8,0.267 -0.8,1.373c0,1.022 -0.205,1.438 -0.8,1.627c-0.588,0.187 -0.8,0.605 -0.8,1.58c0,0.99 -0.203,1.38 -0.8,1.536c-0.606,0.159 -0.8,0.546 -0.8,1.6c0,1.054 -0.194,1.441 -0.8,1.6c-0.583,0.152 -0.8,0.546 -0.8,1.447c0,0.704 -0.345,1.582 -0.8,2.037c-0.44,0.44 -0.8,1.231 -0.8,1.757c0,0.527 -0.267,1.06 -0.593,1.185c-0.326,0.125 -0.709,0.954 -0.851,1.843c-0.142,0.888 -0.393,1.615 -0.559,1.615c-0.165,0 -0.524,0.54 -0.797,1.2l-0.497,1.2h-6.152h-6.151v-12.4v-12.4h11.8h11.8v1.6" id="path0" fill="#fcc419"></path><path d="M8.8,1.6c0,0.667 -0.267,0.8 -1.6,0.8c-1.333,0 -1.6,0.133 -1.6,0.8c0,0.533 -0.267,0.8 -0.8,0.8c-0.533,0 -0.8,0.267 -0.8,0.8c0,0.533 -0.267,0.8 -0.8,0.8c-0.444,0 -0.8,0.267 -0.8,0.6c0,0.33 -0.36,0.96 -0.8,1.4c-0.533,0.533 -0.8,1.333 -0.8,2.4c0,0.88 -0.18,1.6 -0.4,1.6c-0.248,0 -0.4,2.133 -0.4,5.6c0,3.467 0.152,5.6 0.4,5.6c0.22,0 0.4,0.63 0.4,1.4c0,1.133 0.152,1.4 0.8,1.4c0.542,0 0.8,0.267 0.8,0.826c0,1.019 0.693,2.374 1.214,2.374c0.212,0 0.746,0.36 1.186,0.8c0.44,0.44 1.16,0.8 1.6,0.8c0.533,0 0.8,0.267 0.8,0.8c0,0.652 0.267,0.8 1.437,0.8c0.831,0 1.866,0.337 2.454,0.8c0.997,0.784 1.623,0.8 31.316,0.8c29.963,0 30.302,0.009 30.509,0.8c0.186,0.711 0.546,0.8 3.247,0.8c2.391,0 3.037,0.124 3.037,0.582c0,0.345 0.554,0.686 1.363,0.837c0.869,0.163 1.436,0.533 1.563,1.019c0.109,0.419 0.486,0.762 0.837,0.762c0.445,0 0.637,0.372 0.637,1.237c0,0.901 0.217,1.295 0.8,1.447c0.508,0.133 0.8,0.546 0.8,1.13c0,1.337 0.405,2.186 1.043,2.186c0.373,0 0.557,0.475 0.557,1.437c0,1.101 0.187,1.487 0.8,1.647c0.673,0.176 0.8,0.546 0.8,2.336c0,1.775 0.132,2.168 0.8,2.38c0.668,0.212 0.8,0.605 0.8,2.38c0,1.79 0.127,2.16 0.8,2.336c0.675,0.176 0.8,0.546 0.8,2.358c0,1.181 0.246,2.503 0.546,2.937c0.3,0.434 0.675,1.835 0.832,3.114c0.175,1.426 0.505,2.409 0.854,2.543c0.37,0.142 0.568,0.824 0.568,1.959c0,1.185 0.241,1.971 0.752,2.457c0.533,0.507 0.804,1.458 0.929,3.26c0.127,1.835 0.364,2.649 0.848,2.92c0.468,0.262 0.671,0.903 0.671,2.123c0,2.128 0.306,3.013 1.043,3.013c0.408,0 0.557,0.582 0.557,2.173c0,1.822 0.129,2.214 0.8,2.427c0.691,0.219 0.8,0.605 0.8,2.824c0,2.136 0.135,2.653 0.8,3.069c0.638,0.398 0.8,0.933 0.8,2.641c0,1.804 0.126,2.174 0.8,2.35c0.683,0.179 0.8,0.546 0.8,2.501c0,1.783 0.177,2.452 0.8,3.015c0.613,0.555 0.8,1.232 0.8,2.899c0,1.839 0.124,2.208 0.8,2.385c0.686,0.179 0.8,0.546 0.8,2.563c0,1.745 0.144,2.353 0.557,2.353c0.771,0 1.043,0.898 1.043,3.445c0,1.569 0.168,2.245 0.6,2.41c0.333,0.128 0.6,0.723 0.6,1.338c0,1.947 0.483,3.607 1.05,3.607c0.398,0 0.55,0.592 0.55,2.146c0,1.54 0.226,2.433 0.8,3.163c0.44,0.56 0.802,1.619 0.805,2.354c0.008,1.935 0.407,3.137 1.042,3.137c0.405,0 0.553,0.599 0.553,2.237c0,1.901 0.12,2.269 0.8,2.447c0.686,0.179 0.8,0.546 0.8,2.563c0,1.82 0.181,2.534 0.8,3.153c0.585,0.585 0.8,1.333 0.8,2.786c0,1.576 0.165,2.074 0.8,2.414c0.647,0.346 0.8,0.838 0.8,2.567c0,1.803 0.126,2.173 0.8,2.349c0.68,0.178 0.8,0.546 0.8,2.447c0,1.704 0.191,2.428 0.8,3.037c0.609,0.609 0.8,1.333 0.8,3.037c0,1.901 0.12,2.269 0.8,2.447c0.672,0.176 0.8,0.546 0.8,2.32c0,1.412 0.18,2.18 0.545,2.32c0.349,0.133 0.646,1.236 0.826,3.065c0.189,1.909 0.472,2.929 0.855,3.077c0.352,0.134 0.576,0.784 0.579,1.677c0.008,2.048 0.395,3.257 1.042,3.257c0.404,0 0.553,0.594 0.553,2.2c0,1.667 0.194,2.394 0.8,3c0.609,0.609 0.8,1.333 0.8,3.037c0,1.901 0.12,2.269 0.8,2.447c0.677,0.177 0.8,0.546 0.8,2.4c0,1.854 0.123,2.223 0.8,2.4c0.704,0.184 0.8,0.546 0.8,3c0,2.454 0.096,2.816 0.8,3c0.686,0.179 0.8,0.546 0.8,2.563c0,2.086 0.091,2.353 0.8,2.353c0.711,0 0.8,0.267 0.8,2.4c0,1.867 0.178,2.578 0.8,3.2c0.604,0.604 0.8,1.333 0.8,2.973c0,1.822 0.129,2.214 0.8,2.427c0.671,0.213 0.8,0.605 0.8,2.427c0,1.906 0.098,2.173 0.8,2.173c0.728,0 0.8,0.267 0.8,2.957c0,2.114 0.154,3.017 0.54,3.165c0.31,0.119 0.648,1.117 0.793,2.342c0.141,1.194 0.521,2.332 0.86,2.58c0.371,0.272 0.607,1.079 0.607,2.081c0,1.636 0.674,3.675 1.215,3.675c0.157,0 0.37,1.017 0.473,2.26c0.122,1.472 0.418,2.429 0.85,2.744c0.47,0.344 0.662,1.091 0.662,2.578c0,1.756 0.129,2.127 0.8,2.302c0.675,0.177 0.8,0.546 0.8,2.363c0,1.62 0.198,2.351 0.8,2.953c0.559,0.559 0.8,1.333 0.8,2.567c0,2.147 0.304,3.033 1.043,3.033c0.41,0 0.557,0.592 0.557,2.237c0,1.901 0.12,2.269 0.8,2.447c0.683,0.179 0.8,0.546 0.8,2.501c0,1.783 0.177,2.452 0.8,3.015c0.613,0.555 0.8,1.232 0.8,2.899c0,1.839 0.124,2.208 0.8,2.385c0.686,0.179 0.8,0.546 0.8,2.563c0,1.745 0.144,2.353 0.557,2.353c0.721,0 1.043,0.879 1.043,2.845c0,1.036 0.207,1.659 0.6,1.81c0.406,0.156 0.6,0.793 0.6,1.969c0,1.784 0.667,3.776 1.264,3.776c0.185,0 0.336,0.696 0.336,1.546c0,0.94 0.313,1.945 0.8,2.563c0.45,0.572 0.8,1.623 0.8,2.4c0,0.777 0.35,1.829 0.8,2.4c0.44,0.56 0.8,1.394 0.8,1.854c0,0.46 0.36,1.197 0.8,1.637c0.44,0.44 0.8,1.07 0.8,1.4c0,0.333 0.356,0.6 0.8,0.6c0.652,0 0.8,0.267 0.8,1.437c0,1.101 0.187,1.487 0.8,1.647c0.443,0.116 0.8,0.546 0.8,0.963c0,0.486 0.283,0.753 0.8,0.753c0.624,0 0.8,0.267 0.8,1.213c0,0.735 0.248,1.307 0.631,1.454c0.346,0.133 0.792,0.668 0.99,1.188c0.197,0.52 0.634,0.945 0.969,0.945c0.343,0 0.61,0.35 0.61,0.8c0,0.533 0.267,0.8 0.8,0.8c0.533,0 0.8,0.267 0.8,0.8c0,0.44 0.172,0.8 0.382,0.8c0.481,0 2.418,1.915 2.418,2.391c0,0.195 0.36,0.469 0.8,0.609c0.44,0.14 0.8,0.512 0.8,0.827c0,0.315 0.36,0.573 0.8,0.573c0.533,0 0.8,0.267 0.8,0.8c0,0.533 0.267,0.8 0.8,0.8c0.452,0 0.8,0.267 0.8,0.613c0,0.336 0.315,0.725 0.7,0.864c0.385,0.138 1.022,0.582 1.416,0.987c0.393,0.405 1.158,0.736 1.7,0.736c0.717,0 0.984,0.217 0.984,0.8c0,0.533 0.267,0.8 0.8,0.8c0.44,0 0.8,0.251 0.8,0.557c0,0.645 0.852,1.043 2.233,1.043c0.7,0 0.967,0.221 0.967,0.8c0,0.642 0.267,0.8 1.353,0.8c1.017,0 1.406,0.199 1.563,0.8c0.115,0.44 0.513,0.8 0.883,0.8c0.371,0 1.132,0.36 1.692,0.8c0.559,0.44 1.623,0.8 2.363,0.8c0.875,0 1.346,0.192 1.346,0.55c0,0.571 1.663,1.05 3.65,1.05c0.709,0 1.15,0.211 1.15,0.55c0,0.832 1.871,1.05 9.001,1.05c5.291,0 6.594,0.112 6.999,0.6c0.44,0.53 -0.394,0.6 -7.118,0.6c-7.823,0 -8.882,0.118 -8.882,0.992c0,0.317 -0.771,0.58 -2.067,0.705c-1.263,0.121 -2.253,0.452 -2.544,0.851c-0.263,0.358 -0.772,0.652 -1.133,0.652c-0.389,0 -0.656,0.325 -0.656,0.8c0,0.652 -0.267,0.8 -1.437,0.8c-1.078,0 -1.488,0.191 -1.637,0.763c-0.11,0.42 -0.543,0.853 -0.963,0.963c-0.42,0.109 -0.763,0.486 -0.763,0.837c0,0.35 -0.258,0.637 -0.573,0.637c-0.315,0 -0.687,0.36 -0.827,0.8c-0.14,0.44 -0.496,0.8 -0.792,0.8c-0.316,0 -0.649,0.661 -0.808,1.6c-0.166,0.984 -0.488,1.6 -0.835,1.6c-0.311,0 -0.565,0.317 -0.565,0.704c0,0.387 -0.36,0.928 -0.8,1.203c-0.602,0.376 -0.8,0.933 -0.8,2.25c0,1.413 -0.154,1.79 -0.8,1.959c-0.773,0.202 -0.8,0.546 -0.8,10.247c0,9.77 0.021,10.037 0.8,10.037c0.667,0 0.8,0.267 0.8,1.604c0,1.109 0.247,1.815 0.8,2.289c0.44,0.377 0.8,1.095 0.8,1.596c0,0.543 0.242,0.911 0.6,0.911c0.33,0 0.6,0.225 0.6,0.5c0.001,0.275 0.451,1.023 1,1.662c0.55,0.639 1,1.404 1,1.7c0,0.296 0.258,0.538 0.573,0.538c0.315,0 0.687,0.36 0.827,0.8c0.14,0.44 0.562,0.8 0.938,0.8c0.376,0 0.992,0.36 1.369,0.8c0.377,0.44 1.047,0.8 1.489,0.8c0.537,0 0.804,0.265 0.804,0.8c0,0.667 0.267,0.8 1.6,0.8c1.333,0 1.6,0.133 1.6,0.8c0,0.667 0.267,0.8 1.6,0.8c0.88,0 1.6,0.18 1.6,0.4c0,0.255 3.333,0.4 9.2,0.4c5.867,0 9.2,-0.145 9.2,-0.4c0,-0.22 1.007,-0.4 2.237,-0.4c1.901,0 2.269,-0.12 2.447,-0.8c0.148,-0.566 0.546,-0.8 1.359,-0.8c0.717,0 1.338,-0.301 1.65,-0.8c0.275,-0.44 0.816,-0.8 1.203,-0.8c0.437,0 0.704,-0.303 0.704,-0.8c0,-0.533 0.267,-0.8 0.8,-0.8c0.533,0 0.8,-0.267 0.8,-0.8c0,-0.533 0.267,-0.8 0.8,-0.8c0.444,0 0.8,-0.267 0.8,-0.6c0,-0.33 0.276,-0.6 0.613,-0.6c0.336,0 0.73,-0.315 0.873,-0.7c0.144,-0.385 0.588,-0.935 0.988,-1.223c0.399,-0.287 0.726,-0.763 0.726,-1.057c0,-0.294 0.27,-0.638 0.6,-0.765c0.343,-0.131 0.6,-0.728 0.6,-1.396c0,-0.829 0.231,-1.226 0.8,-1.375c0.68,-0.178 0.8,-0.546 0.8,-2.447c0,-1.97 0.095,-2.237 0.8,-2.237c1.25,0 1.25,-16.603 0,-17c-0.66,-0.21 -0.8,-0.605 -0.8,-2.264c0,-1.674 -0.134,-2.046 -0.8,-2.22c-0.44,-0.115 -0.798,-0.413 -0.797,-0.663c0.007,-0.901 -1.804,-4.253 -2.297,-4.253c-0.278,0 -0.506,-0.287 -0.506,-0.637c0,-0.351 -0.36,-0.732 -0.8,-0.847c-0.443,-0.116 -0.8,-0.546 -0.8,-0.963c0,-0.486 -0.283,-0.753 -0.8,-0.753c-0.533,0 -0.8,-0.267 -0.8,-0.8c0,-0.533 -0.267,-0.8 -0.8,-0.8c-0.533,0 -0.8,-0.267 -0.8,-0.8c0,-0.533 -0.267,-0.8 -0.8,-0.8c-0.44,0 -0.8,-0.251 -0.8,-0.557c0,-0.638 -0.849,-1.043 -2.186,-1.043c-0.584,0 -0.997,-0.292 -1.13,-0.8c-0.159,-0.61 -0.546,-0.8 -1.627,-0.8c-0.798,0 -1.557,-0.245 -1.737,-0.562c-0.176,-0.308 -0.77,-0.644 -1.32,-0.745c-0.55,-0.101 16.28,-0.182 37.4,-0.179c21.12,0.003 37.905,0.081 37.3,0.173c-0.611,0.092 -1.1,0.421 -1.1,0.74c0,0.391 -0.456,0.573 -1.437,0.573c-1.101,0 -1.487,0.187 -1.647,0.8c-0.15,0.574 -0.546,0.8 -1.4,0.8c-0.854,0 -1.25,0.226 -1.4,0.8c-0.116,0.443 -0.546,0.8 -0.963,0.8c-0.472,0 -0.753,0.282 -0.753,0.755c0,0.549 -0.389,0.829 -1.421,1.023c-0.782,0.146 -1.533,0.557 -1.669,0.914c-0.137,0.356 -0.578,0.976 -0.979,1.377c-0.402,0.402 -0.731,1.091 -0.731,1.531c0,0.533 -0.267,0.8 -0.8,0.8c-0.517,0 -0.8,0.267 -0.8,0.753c0,0.417 -0.357,0.847 -0.8,0.963c-0.613,0.16 -0.8,0.546 -0.8,1.647c0,1.17 -0.148,1.437 -0.8,1.437c-0.646,0 -0.8,0.267 -0.8,1.386c0,0.976 -0.236,1.512 -0.8,1.814c-1.248,0.668 -1.248,19.558 0,19.884c0.606,0.159 0.8,0.546 0.8,1.6c0,1.054 0.194,1.441 0.8,1.6c0.597,0.156 0.8,0.546 0.8,1.536c0,0.975 0.212,1.393 0.8,1.58c0.44,0.14 0.8,0.529 0.8,0.864c0,0.336 0.36,0.705 0.8,0.82c0.574,0.15 0.8,0.546 0.8,1.4c0,0.835 0.228,1.25 0.763,1.39c0.42,0.11 0.853,0.543 0.963,0.963c0.109,0.42 0.486,0.763 0.837,0.763c0.35,0 0.997,0.36 1.437,0.8c0.44,0.44 1.16,0.8 1.6,0.8c0.533,0 0.8,0.267 0.8,0.8c0,0.642 0.267,0.8 1.353,0.8c1.017,0 1.406,0.199 1.563,0.8c0.178,0.68 0.546,0.8 2.447,0.8c1.23,0 2.237,0.18 2.237,0.4c0,0.255 3.333,0.4 9.2,0.4c5.867,0 9.2,-0.145 9.2,-0.4c0,-0.22 0.737,-0.4 1.637,-0.4c1.301,0 1.681,-0.164 1.847,-0.8c0.157,-0.601 0.546,-0.8 1.563,-0.8c1.086,0 1.353,-0.158 1.353,-0.8c0,-0.533 0.267,-0.8 0.8,-0.8c0.44,0 1.16,-0.36 1.6,-0.8c0.44,-0.44 1.087,-0.8 1.437,-0.8c0.351,0 0.732,-0.36 0.847,-0.8c0.115,-0.44 0.464,-0.8 0.775,-0.8c0.311,0 0.682,-0.301 0.823,-0.669c0.141,-0.369 0.586,-0.999 0.987,-1.4c0.402,-0.402 0.731,-1.07 0.731,-1.484c0,-0.417 0.357,-0.847 0.8,-0.963c0.44,-0.115 0.8,-0.513 0.8,-0.883c0,-0.371 0.36,-1.132 0.8,-1.692c0.44,-0.559 0.8,-1.623 0.8,-2.363c0,-0.884 0.191,-1.346 0.557,-1.346c0.833,0 1.043,-0.923 1.043,-4.59c0,-2.586 0.133,-3.376 0.6,-3.555c0.804,-0.308 0.804,-3.188 0,-3.855c-0.445,-0.37 -0.6,-1.356 -0.6,-3.83c0,-3.155 -0.521,-5.37 -1.264,-5.37c-0.185,0 -0.338,-0.405 -0.341,-0.9c-0.01,-1.527 -0.462,-2.7 -1.042,-2.7c-0.304,0 -0.553,-0.36 -0.553,-0.8c0,-0.533 -0.267,-0.8 -0.8,-0.8c-0.609,0 -0.8,-0.267 -0.8,-1.116c0,-0.791 -0.467,-1.546 -1.6,-2.588c-0.88,-0.809 -1.6,-1.628 -1.6,-1.819c0,-0.192 -0.45,-0.554 -1,-0.804c-0.55,-0.251 -1,-0.632 -1,-0.846c0,-0.215 -0.613,-0.506 -1.363,-0.646c-0.869,-0.163 -1.436,-0.533 -1.563,-1.019c-0.109,-0.419 -0.493,-0.762 -0.853,-0.762c-0.36,0 -1.041,-0.36 -1.513,-0.8c-0.488,-0.455 -1.412,-0.8 -2.141,-0.8c-0.739,0 -1.374,-0.241 -1.5,-0.569c-0.12,-0.313 -0.634,-0.648 -1.143,-0.746c-0.508,-0.097 5.117,-0.201 12.5,-0.231c11.122,-0.045 13.556,-0.155 14.2,-0.641c0.542,-0.411 1.837,-0.591 4.302,-0.6c3.399,-0.013 4.649,-0.331 5.794,-1.476c0.296,-0.295 0.794,-0.537 1.109,-0.537c0.314,0 0.571,-0.258 0.571,-0.573c0,-0.315 0.341,-0.681 0.757,-0.813c0.416,-0.132 0.849,-0.595 0.962,-1.027c0.114,-0.433 0.493,-0.787 0.844,-0.787c0.457,0 0.637,-0.382 0.637,-1.353c0,-1.017 0.199,-1.406 0.8,-1.563c0.688,-0.18 0.8,-0.546 0.8,-2.604c0,-1.759 0.159,-2.455 0.6,-2.625c0.434,-0.166 0.6,-0.846 0.6,-2.455c0,-1.609 -0.166,-2.289 -0.6,-2.455c-0.447,-0.172 -0.6,-0.884 -0.6,-2.788c0,-2.024 -0.167,-2.724 -0.8,-3.357c-0.44,-0.44 -0.8,-1.16 -0.8,-1.6c0,-0.533 -0.267,-0.8 -0.8,-0.8c-0.533,0 -0.8,-0.267 -0.8,-0.8c0,-0.44 -0.227,-0.8 -0.504,-0.8c-0.277,0 -0.728,-0.36 -1.003,-0.8c-0.275,-0.44 -0.768,-0.8 -1.096,-0.8c-0.329,0 -0.597,-0.254 -0.597,-0.565c0,-0.347 -0.616,-0.669 -1.6,-0.835c-0.88,-0.149 -1.6,-0.498 -1.6,-0.776c0,-0.404 -12.63,-0.547 -63.056,-0.715c-57.65,-0.191 -63.088,-0.265 -63.42,-0.859c-0.301,-0.538 -1.117,-0.65 -4.744,-0.65c-3.847,0 -4.477,-0.097 -5.18,-0.8c-0.533,-0.533 -1.333,-0.8 -2.4,-0.8c-1.333,0 -1.6,-0.133 -1.6,-0.8c0,-0.533 -0.267,-0.8 -0.8,-0.8c-0.44,0 -1.16,-0.36 -1.6,-0.8c-0.44,-0.44 -1.07,-0.8 -1.4,-0.8c-0.33,0 -0.6,-0.287 -0.6,-0.637c0,-0.351 -0.36,-0.732 -0.8,-0.847c-0.44,-0.115 -0.8,-0.475 -0.8,-0.8c0,-0.325 -0.36,-0.685 -0.8,-0.8c-0.44,-0.115 -0.8,-0.475 -0.8,-0.8c0,-0.325 -0.36,-0.685 -0.8,-0.8c-0.44,-0.115 -0.8,-0.475 -0.8,-0.8c0,-0.325 -0.36,-0.685 -0.8,-0.8c-0.44,-0.115 -0.8,-0.475 -0.8,-0.8c0,-0.325 -0.36,-0.685 -0.8,-0.8c-0.441,-0.115 -0.8,-0.546 -0.8,-0.959c0,-0.413 -0.36,-0.975 -0.8,-1.25c-0.44,-0.275 -0.8,-0.906 -0.8,-1.403c0,-0.637 -0.236,-0.904 -0.8,-0.904c-0.652,0 -0.8,-0.267 -0.8,-1.437c0,-1.101 -0.187,-1.487 -0.8,-1.647c-0.627,-0.164 -0.8,-0.546 -0.8,-1.763c0,-1.02 -0.275,-1.828 -0.8,-2.353c-0.44,-0.44 -0.8,-1.16 -0.8,-1.6c0,-0.797 0.267,-0.8 65.437,-0.8c65.101,0 65.439,-0.004 65.647,-0.8c0.173,-0.662 0.546,-0.8 2.159,-0.8c1.517,0 2.061,-0.178 2.45,-0.8c0.275,-0.44 0.816,-0.8 1.203,-0.8c0.387,0 1.064,-0.36 1.504,-0.8c0.44,-0.44 1.087,-0.8 1.437,-0.8c0.351,0 0.732,-0.36 0.847,-0.8c0.115,-0.44 0.475,-0.8 0.8,-0.8c0.325,0 0.685,-0.36 0.8,-0.8c0.115,-0.44 0.446,-0.8 0.736,-0.8c0.289,0 0.635,-0.343 0.768,-0.763c0.133,-0.42 0.489,-0.858 0.79,-0.973c0.3,-0.115 0.665,-0.747 0.809,-1.404c0.144,-0.656 0.511,-1.289 0.815,-1.406c0.305,-0.116 0.674,-0.851 0.82,-1.633c0.153,-0.811 0.503,-1.421 0.818,-1.421c0.333,0 0.652,-0.632 0.806,-1.6c0.155,-0.965 0.474,-1.6 0.805,-1.6c0.374,0 0.549,-0.511 0.549,-1.6c0,-1.333 0.133,-1.6 0.8,-1.6c0.645,0 0.8,-0.267 0.8,-1.373c0,-1.022 0.205,-1.438 0.8,-1.627c0.588,-0.187 0.8,-0.605 0.8,-1.58c0,-0.99 0.203,-1.38 0.8,-1.536c0.606,-0.159 0.8,-0.546 0.8,-1.6c0,-1.054 0.194,-1.441 0.8,-1.6c0.613,-0.16 0.8,-0.546 0.8,-1.647c0,-0.962 0.184,-1.437 0.557,-1.437c0.612,0 1.043,-0.841 1.043,-2.033c0,-0.422 0.36,-1.127 0.8,-1.567c0.44,-0.44 0.8,-1.231 0.8,-1.757c0,-0.527 0.253,-1.055 0.562,-1.173c0.31,-0.119 0.693,-0.813 0.852,-1.543c0.16,-0.73 0.627,-1.756 1.038,-2.281c0.411,-0.525 0.748,-1.56 0.748,-2.3c0,-0.925 0.186,-1.346 0.595,-1.346c0.385,0 0.686,-0.565 0.851,-1.6c0.155,-0.965 0.474,-1.6 0.805,-1.6c0.374,0 0.549,-0.511 0.549,-1.6c0,-1.333 0.133,-1.6 0.8,-1.6c0.663,0 0.8,-0.267 0.8,-1.553c0,-1.217 0.173,-1.599 0.8,-1.763c0.606,-0.159 0.8,-0.546 0.8,-1.6c0,-1.054 0.194,-1.441 0.8,-1.6c0.613,-0.16 0.8,-0.546 0.8,-1.647c0,-0.962 0.184,-1.437 0.557,-1.437c0.612,0 1.043,-0.841 1.043,-2.033c0,-0.422 0.36,-1.127 0.8,-1.567c0.525,-0.525 0.8,-1.333 0.8,-2.353c0,-1.217 0.173,-1.599 0.8,-1.763c0.606,-0.159 0.8,-0.546 0.8,-1.6c0,-1.054 0.194,-1.441 0.8,-1.6c0.585,-0.153 0.8,-0.546 0.8,-1.459c0,-0.732 0.244,-1.344 0.589,-1.476c0.324,-0.125 0.707,-0.853 0.851,-1.62c0.143,-0.766 0.491,-1.481 0.771,-1.589c0.281,-0.107 0.623,-0.795 0.76,-1.528c0.138,-0.732 0.511,-1.548 0.829,-1.812c0.318,-0.264 0.692,-1.086 0.831,-1.826c0.139,-0.74 0.504,-1.554 0.811,-1.809c0.307,-0.255 0.558,-1.149 0.558,-1.987c0,-1.173 0.184,-1.583 0.8,-1.778c0.591,-0.188 0.8,-0.605 0.8,-1.6c0,-0.995 0.209,-1.412 0.8,-1.6c0.58,-0.184 0.8,-0.605 0.8,-1.531c0,-0.843 0.271,-1.446 0.8,-1.776c0.452,-0.283 0.8,-0.933 0.8,-1.496c0,-0.549 0.36,-1.357 0.8,-1.797c0.44,-0.44 0.8,-1.25 0.8,-1.8c0,-0.55 0.36,-1.36 0.8,-1.8c0.489,-0.489 0.8,-1.333 0.8,-2.173c0,-1.022 0.205,-1.438 0.8,-1.627c0.58,-0.184 0.8,-0.605 0.8,-1.531c0,-0.843 0.271,-1.446 0.8,-1.776c0.5,-0.312 0.8,-0.933 0.8,-1.654c0,-0.637 0.259,-1.253 0.578,-1.375c0.318,-0.122 0.704,-0.906 0.858,-1.743c0.154,-0.837 0.614,-1.95 1.022,-2.475c0.408,-0.525 0.742,-1.29 0.742,-1.7c0,-0.41 0.151,-0.746 0.336,-0.746c0.474,0 1.264,-1.859 1.264,-2.976c0,-0.516 0.27,-1.042 0.6,-1.169c0.365,-0.14 0.6,-0.745 0.6,-1.546c0,-0.883 0.263,-1.481 0.8,-1.816c0.51,-0.319 0.8,-0.933 0.8,-1.696c0,-0.664 0.357,-1.554 0.8,-1.997c0.533,-0.533 0.8,-1.333 0.8,-2.4c0,-1.333 0.133,-1.6 0.8,-1.6c0.663,0 0.8,-0.267 0.8,-1.553c0,-1.217 0.173,-1.599 0.8,-1.763c0.705,-0.184 0.8,-0.546 0.8,-3.047c0,-1.625 0.171,-2.837 0.4,-2.837c0.257,0 0.4,-3.867 0.4,-10.8c0,-6.933 -0.143,-10.8 -0.4,-10.8c-0.22,0 -0.4,-0.72 -0.4,-1.6c0,-1.333 -0.133,-1.6 -0.8,-1.6c-0.667,0 -0.8,-0.267 -0.8,-1.6c0,-1.333 -0.133,-1.6 -0.8,-1.6c-0.533,0 -0.8,-0.267 -0.8,-0.8c0,-0.44 -0.36,-1.16 -0.8,-1.6c-0.44,-0.44 -0.8,-1.087 -0.8,-1.437c0,-0.351 -0.36,-0.732 -0.8,-0.847c-0.44,-0.115 -0.8,-0.464 -0.8,-0.775c0,-0.311 -0.301,-0.682 -0.669,-0.823c-0.369,-0.141 -0.999,-0.586 -1.4,-0.987c-0.402,-0.402 -1.07,-0.731 -1.484,-0.731c-0.417,0 -0.847,-0.357 -0.963,-0.8c-0.115,-0.44 -0.513,-0.8 -0.883,-0.8c-0.371,0 -1.132,-0.36 -1.692,-0.8c-0.559,-0.44 -1.614,-0.8 -2.343,-0.8c-0.847,0 -1.468,-0.253 -1.718,-0.7c-0.356,-0.638 -1.465,-0.712 -12.52,-0.831c-9.967,-0.108 -12.185,-0.233 -12.448,-0.7c-0.498,-0.886 -181.685,-0.854 -182.025,0.031c-0.348,0.907 -36.162,0.907 -36.51,0c-0.127,-0.33 -0.461,-0.6 -0.743,-0.6c-0.353,0 -0.562,-0.882 -0.672,-2.837c-0.121,-2.147 -0.327,-2.929 -0.845,-3.219c-0.503,-0.282 -0.685,-0.91 -0.685,-2.36c0,-1.544 -0.175,-2.087 -0.8,-2.477c-0.635,-0.397 -0.8,-0.933 -0.8,-2.603c0,-1.571 -0.203,-2.307 -0.8,-2.904c-0.609,-0.609 -0.8,-1.333 -0.8,-3.037c0,-1.901 -0.12,-2.269 -0.8,-2.447c-0.677,-0.177 -0.8,-0.546 -0.8,-2.4c0,-1.854 -0.123,-2.223 -0.8,-2.4c-0.694,-0.182 -0.8,-0.546 -0.8,-2.759c0,-2.117 -0.136,-2.635 -0.8,-3.05c-0.638,-0.398 -0.8,-0.933 -0.8,-2.641c0,-1.804 -0.126,-2.174 -0.8,-2.35c-0.676,-0.177 -0.8,-0.546 -0.8,-2.375c0,-1.556 -0.169,-2.231 -0.6,-2.396c-0.385,-0.148 -0.6,-0.766 -0.6,-1.728c0,-1.641 -0.7,-4.017 -1.183,-4.017c-0.168,0 -0.409,-1.007 -0.536,-2.238c-0.127,-1.23 -0.492,-2.445 -0.811,-2.7c-0.319,-0.254 -0.671,-1.344 -0.783,-2.422c-0.126,-1.22 -0.445,-2.097 -0.845,-2.32c-0.401,-0.225 -0.642,-0.892 -0.642,-1.777c0,-1.081 -0.19,-1.468 -0.8,-1.627c-0.601,-0.157 -0.8,-0.546 -0.8,-1.563c0,-0.82 -0.315,-1.668 -0.8,-2.153c-0.44,-0.44 -0.8,-1.16 -0.8,-1.6c0,-0.533 -0.267,-0.8 -0.8,-0.8c-0.667,0 -0.8,-0.267 -0.8,-1.6c0,-1.333 -0.133,-1.6 -0.8,-1.6c-0.533,0 -0.8,-0.267 -0.8,-0.8c0,-0.44 -0.36,-1.16 -0.8,-1.6c-0.44,-0.44 -0.8,-1.087 -0.8,-1.437c0,-0.351 -0.343,-0.728 -0.763,-0.837c-0.42,-0.11 -0.853,-0.543 -0.963,-0.963c-0.109,-0.42 -0.486,-0.763 -0.837,-0.763c-0.35,0 -0.637,-0.194 -0.637,-0.431c0,-0.56 -2.209,-2.769 -2.769,-2.769c-0.237,0 -0.431,-0.27 -0.431,-0.6c0,-0.33 -0.264,-0.6 -0.586,-0.6c-0.322,0 -0.779,-0.36 -1.014,-0.8c-0.28,-0.524 -0.838,-0.8 -1.614,-0.8c-0.919,0 -1.186,-0.18 -1.186,-0.8c0,-0.533 -0.267,-0.8 -0.8,-0.8c-0.44,0 -1.16,-0.36 -1.6,-0.8c-0.44,-0.44 -1.16,-0.8 -1.6,-0.8c-0.44,0 -1.16,-0.36 -1.6,-0.8c-0.503,-0.503 -1.333,-0.8 -2.237,-0.8c-1.101,0 -1.487,-0.187 -1.647,-0.8c-0.176,-0.672 -0.546,-0.8 -2.316,-0.8c-1.77,0 -2.14,-0.128 -2.316,-0.8c-0.33,-1.263 -77.884,-1.263 -77.884,0M213.2,139.8v12.6h-26.6c-24.072,0 -26.6,-0.061 -26.6,-0.637c0,-0.351 -0.36,-0.732 -0.8,-0.847c-0.684,-0.179 -0.8,-0.546 -0.8,-2.534c0,-1.425 -0.21,-2.535 -0.543,-2.868c-0.299,-0.299 -0.67,-1.557 -0.825,-2.795c-0.157,-1.254 -0.512,-2.341 -0.803,-2.452c-0.296,-0.114 -0.608,-1.106 -0.723,-2.301c-0.114,-1.193 -0.458,-2.288 -0.796,-2.535c-0.358,-0.262 -0.67,-1.347 -0.785,-2.727c-0.119,-1.439 -0.461,-2.592 -0.919,-3.098c-0.725,-0.801 -0.712,-0.806 2.169,-0.806c2.563,0 2.924,-0.093 3.109,-0.8c0.207,-0.79 0.546,-0.8 27.563,-0.8h27.353v12.6M274.4,139.8v12.6h-18.8h-18.8v-12.6v-12.6h18.8h18.8v12.6M364.8,128.138c0,0.516 -0.36,1.264 -0.8,1.662c-0.527,0.477 -0.8,1.232 -0.8,2.215c0,1.155 -0.18,1.539 -0.8,1.701c-0.613,0.16 -0.8,0.546 -0.8,1.647c0,1.006 -0.179,1.437 -0.595,1.437c-0.385,0 -0.686,0.565 -0.851,1.6c-0.155,0.965 -0.474,1.6 -0.805,1.6c-0.363,0 -0.549,0.486 -0.549,1.437c0,1.101 -0.187,1.487 -0.8,1.647c-0.627,0.164 -0.8,0.546 -0.8,1.763c0,1.061 -0.177,1.553 -0.557,1.553c-0.72,0 -1.043,0.878 -1.043,2.833c0,1.3 -0.136,1.567 -0.8,1.567c-0.533,0 -0.8,0.267 -0.8,0.8c0,0.792 -0.267,0.8 -28.2,0.8h-28.2v-12.6v-12.6h33.6h33.6v0.938M213.2,186.604v11.004l-19.5,-0.104l-19.5,-0.104l-0.128,-1c-0.071,-0.55 -0.356,-1.18 -0.634,-1.4c-0.278,-0.22 -0.627,-1.3 -0.775,-2.4c-0.147,-1.1 -0.537,-2.2 -0.866,-2.444c-0.362,-0.269 -0.597,-1.096 -0.597,-2.1c0,-1.083 -0.258,-1.914 -0.746,-2.402c-0.487,-0.487 -0.811,-1.527 -0.932,-2.994c-0.103,-1.236 -0.468,-2.565 -0.811,-2.954c-0.343,-0.388 -0.694,-1.471 -0.778,-2.406l-0.154,-1.7h22.71h22.711v11.004M274.4,186.6v11h-18.8h-18.8v-11v-11h18.8h18.8v11M342.8,176.357c0,0.417 -0.27,0.861 -0.6,0.988c-0.377,0.144 -0.6,0.756 -0.6,1.642c0,1.146 -0.151,1.413 -0.8,1.413c-0.663,0 -0.8,0.267 -0.8,1.553c0,1.217 -0.173,1.599 -0.8,1.763c-0.606,0.159 -0.8,0.546 -0.8,1.6c0,1.054 -0.194,1.441 -0.8,1.6c-0.613,0.16 -0.8,0.546 -0.8,1.647c0,0.962 -0.184,1.437 -0.557,1.437c-0.66,0 -1.043,0.857 -1.043,2.336c0,0.638 -0.324,1.274 -0.8,1.571c-0.583,0.364 -0.8,0.933 -0.8,2.096v1.597h-18h-18v-11v-11h22.6c21.908,0 22.6,0.023 22.6,0.757M213.2,233.6v12.4h-9.429c-7.847,0 -9.529,-0.101 -10.028,-0.6c-0.33,-0.33 -1.262,-0.602 -2.072,-0.605c-2.388,-0.009 -3.271,-0.385 -3.271,-1.392c0,-1.7 -0.5,-3.403 -0.999,-3.403c-0.309,0 -0.575,-0.788 -0.698,-2.067c-0.121,-1.263 -0.452,-2.253 -0.851,-2.544c-0.421,-0.309 -0.652,-1.064 -0.652,-2.137c0,-1.165 -0.239,-1.864 -0.8,-2.345c-0.612,-0.524 -0.8,-1.18 -0.8,-2.796c0,-1.578 -0.202,-2.313 -0.8,-2.911c-0.533,-0.533 -0.8,-1.333 -0.8,-2.4v-1.6h15.6h15.6v12.4M274.4,233.6v12.4h-18.8h-18.8v-12.4v-12.4h18.8h18.8v12.4M321.2,222.8c0,1.333 -0.133,1.6 -0.8,1.6c-0.645,0 -0.8,0.267 -0.8,1.373c0,1.022 -0.205,1.438 -0.8,1.627c-0.588,0.187 -0.8,0.605 -0.8,1.58c0,0.99 -0.203,1.38 -0.8,1.536c-0.606,0.159 -0.8,0.546 -0.8,1.6c0,1.054 -0.194,1.441 -0.8,1.6c-0.583,0.152 -0.8,0.546 -0.8,1.447c0,0.704 -0.345,1.582 -0.8,2.037c-0.44,0.44 -0.8,1.231 -0.8,1.757c0,0.527 -0.267,1.06 -0.593,1.185c-0.326,0.125 -0.709,0.954 -0.851,1.843c-0.142,0.888 -0.393,1.615 -0.559,1.615c-0.165,0 -0.524,0.54 -0.797,1.2l-0.497,1.2h-6.152h-6.151v-12.4v-12.4h11.8h11.8v1.6" id="path1" fill="#fcc419"></path><path d="M8.8,1.6c0,0.667 -0.267,0.8 -1.6,0.8c-1.333,0 -1.6,0.133 -1.6,0.8c0,0.533 -0.267,0.8 -0.8,0.8c-0.533,0 -0.8,0.267 -0.8,0.8c0,0.533 -0.267,0.8 -0.8,0.8c-0.444,0 -0.8,0.267 -0.8,0.6c0,0.33 -0.36,0.96 -0.8,1.4c-0.533,0.533 -0.8,1.333 -0.8,2.4c0,0.88 -0.18,1.6 -0.4,1.6c-0.248,0 -0.4,2.133 -0.4,5.6c0,3.467 0.152,5.6 0.4,5.6c0.22,0 0.4,0.63 0.4,1.4c0,1.133 0.152,1.4 0.8,1.4c0.542,0 0.8,0.267 0.8,0.826c0,1.019 0.693,2.374 1.214,2.374c0.212,0 0.746,0.36 1.186,0.8c0.44,0.44 1.16,0.8 1.6,0.8c0.533,0 0.8,0.267 0.8,0.8c0,0.652 0.267,0.8 1.437,0.8c0.831,0 1.866,0.337 2.454,0.8c0.997,0.784 1.623,0.8 31.316,0.8c29.963,0 30.302,0.009 30.509,0.8c0.186,0.711 0.546,0.8 3.247,0.8c2.391,0 3.037,0.124 3.037,0.582c0,0.345 0.554,0.686 1.363,0.837c0.869,0.163 1.436,0.533 1.563,1.019c0.109,0.419 0.486,0.762 0.837,0.762c0.445,0 0.637,0.372 0.637,1.237c0,0.901 0.217,1.295 0.8,1.447c0.508,0.133 0.8,0.546 0.8,1.13c0,1.337 0.405,2.186 1.043,2.186c0.373,0 0.557,0.475 0.557,1.437c0,1.101 0.187,1.487 0.8,1.647c0.673,0.176 0.8,0.546 0.8,2.336c0,1.775 0.132,2.168 0.8,2.38c0.668,0.212 0.8,0.605 0.8,2.38c0,1.79 0.127,2.16 0.8,2.336c0.675,0.176 0.8,0.546 0.8,2.358c0,1.181 0.246,2.503 0.546,2.937c0.3,0.434 0.675,1.835 0.832,3.114c0.175,1.426 0.505,2.409 0.854,2.543c0.37,0.142 0.568,0.824 0.568,1.959c0,1.185 0.241,1.971 0.752,2.457c0.533,0.507 0.804,1.458 0.929,3.26c0.127,1.835 0.364,2.649 0.848,2.92c0.468,0.262 0.671,0.903 0.671,2.123c0,2.128 0.306,3.013 1.043,3.013c0.408,0 0.557,0.582 0.557,2.173c0,1.822 0.129,2.214 0.8,2.427c0.691,0.219 0.8,0.605 0.8,2.824c0,2.136 0.135,2.653 0.8,3.069c0.638,0.398 0.8,0.933 0.8,2.641c0,1.804 0.126,2.174 0.8,2.35c0.683,0.179 0.8,0.546 0.8,2.501c0,1.783 0.177,2.452 0.8,3.015c0.613,0.555 0.8,1.232 0.8,2.899c0,1.839 0.124,2.208 0.8,2.385c0.686,0.179 0.8,0.546 0.8,2.563c0,1.745 0.144,2.353 0.557,2.353c0.771,0 1.043,0.898 1.043,3.445c0,1.569 0.168,2.245 0.6,2.41c0.333,0.128 0.6,0.723 0.6,1.338c0,1.947 0.483,3.607 1.05,3.607c0.398,0 0.55,0.592 0.55,2.146c0,1.54 0.226,2.433 0.8,3.163c0.44,0.56 0.802,1.619 0.805,2.354c0.008,1.935 0.407,3.137 1.042,3.137c0.405,0 0.553,0.599 0.553,2.237c0,1.901 0.12,2.269 0.8,2.447c0.686,0.179 0.8,0.546 0.8,2.563c0,1.82 0.181,2.534 0.8,3.153c0.585,0.585 0.8,1.333 0.8,2.786c0,1.576 0.165,2.074 0.8,2.414c0.647,0.346 0.8,0.838 0.8,2.567c0,1.803 0.126,2.173 0.8,2.349c0.68,0.178 0.8,0.546 0.8,2.447c0,1.704 0.191,2.428 0.8,3.037c0.609,0.609 0.8,1.333 0.8,3.037c0,1.901 0.12,2.269 0.8,2.447c0.672,0.176 0.8,0.546 0.8,2.32c0,1.412 0.18,2.18 0.545,2.32c0.349,0.133 0.646,1.236 0.826,3.065c0.189,1.909 0.472,2.929 0.855,3.077c0.352,0.134 0.576,0.784 0.579,1.677c0.008,2.048 0.395,3.257 1.042,3.257c0.404,0 0.553,0.594 0.553,2.2c0,1.667 0.194,2.394 0.8,3c0.609,0.609 0.8,1.333 0.8,3.037c0,1.901 0.12,2.269 0.8,2.447c0.677,0.177 0.8,0.546 0.8,2.4c0,1.854 0.123,2.223 0.8,2.4c0.704,0.184 0.8,0.546 0.8,3c0,2.454 0.096,2.816 0.8,3c0.686,0.179 0.8,0.546 0.8,2.563c0,2.086 0.091,2.353 0.8,2.353c0.711,0 0.8,0.267 0.8,2.4c0,1.867 0.178,2.578 0.8,3.2c0.604,0.604 0.8,1.333 0.8,2.973c0,1.822 0.129,2.214 0.8,2.427c0.671,0.213 0.8,0.605 0.8,2.427c0,1.906 0.098,2.173 0.8,2.173c0.728,0 0.8,0.267 0.8,2.957c0,2.114 0.154,3.017 0.54,3.165c0.31,0.119 0.648,1.117 0.793,2.342c0.141,1.194 0.521,2.332 0.86,2.58c0.371,0.272 0.607,1.079 0.607,2.081c0,1.636 0.674,3.675 1.215,3.675c0.157,0 0.37,1.017 0.473,2.26c0.122,1.472 0.418,2.429 0.85,2.744c0.47,0.344 0.662,1.091 0.662,2.578c0,1.756 0.129,2.127 0.8,2.302c0.675,0.177 0.8,0.546 0.8,2.363c0,1.62 0.198,2.351 0.8,2.953c0.559,0.559 0.8,1.333 0.8,2.567c0,2.147 0.304,3.033 1.043,3.033c0.41,0 0.557,0.592 0.557,2.237c0,1.901 0.12,2.269 0.8,2.447c0.683,0.179 0.8,0.546 0.8,2.501c0,1.783 0.177,2.452 0.8,3.015c0.613,0.555 0.8,1.232 0.8,2.899c0,1.839 0.124,2.208 0.8,2.385c0.686,0.179 0.8,0.546 0.8,2.563c0,1.745 0.144,2.353 0.557,2.353c0.721,0 1.043,0.879 1.043,2.845c0,1.036 0.207,1.659 0.6,1.81c0.406,0.156 0.6,0.793 0.6,1.969c0,1.784 0.667,3.776 1.264,3.776c0.185,0 0.336,0.696 0.336,1.546c0,0.94 0.313,1.945 0.8,2.563c0.45,0.572 0.8,1.623 0.8,2.4c0,0.777 0.35,1.829 0.8,2.4c0.44,0.56 0.8,1.394 0.8,1.854c0,0.46 0.36,1.197 0.8,1.637c0.44,0.44 0.8,1.07 0.8,1.4c0,0.333 0.356,0.6 0.8,0.6c0.652,0 0.8,0.267 0.8,1.437c0,1.101 0.187,1.487 0.8,1.647c0.443,0.116 0.8,0.546 0.8,0.963c0,0.486 0.283,0.753 0.8,0.753c0.624,0 0.8,0.267 0.8,1.213c0,0.735 0.248,1.307 0.631,1.454c0.346,0.133 0.792,0.668 0.99,1.188c0.197,0.52 0.634,0.945 0.969,0.945c0.343,0 0.61,0.35 0.61,0.8c0,0.533 0.267,0.8 0.8,0.8c0.533,0 0.8,0.267 0.8,0.8c0,0.44 0.172,0.8 0.382,0.8c0.481,0 2.418,1.915 2.418,2.391c0,0.195 0.36,0.469 0.8,0.609c0.44,0.14 0.8,0.512 0.8,0.827c0,0.315 0.36,0.573 0.8,0.573c0.533,0 0.8,0.267 0.8,0.8c0,0.533 0.267,0.8 0.8,0.8c0.452,0 0.8,0.267 0.8,0.613c0,0.336 0.315,0.725 0.7,0.864c0.385,0.138 1.022,0.582 1.416,0.987c0.393,0.405 1.158,0.736 1.7,0.736c0.717,0 0.984,0.217 0.984,0.8c0,0.533 0.267,0.8 0.8,0.8c0.44,0 0.8,0.251 0.8,0.557c0,0.645 0.852,1.043 2.233,1.043c0.7,0 0.967,0.221 0.967,0.8c0,0.642 0.267,0.8 1.353,0.8c1.017,0 1.406,0.199 1.563,0.8c0.115,0.44 0.513,0.8 0.883,0.8c0.371,0 1.132,0.36 1.692,0.8c0.559,0.44 1.623,0.8 2.363,0.8c0.875,0 1.346,0.192 1.346,0.55c0,0.571 1.663,1.05 3.65,1.05c0.709,0 1.15,0.211 1.15,0.55c0,0.832 1.871,1.05 9.001,1.05c5.291,0 6.594,0.112 6.999,0.6c0.44,0.53 -0.394,0.6 -7.118,0.6c-7.823,0 -8.882,0.118 -8.882,0.992c0,0.317 -0.771,0.58 -2.067,0.705c-1.263,0.121 -2.253,0.452 -2.544,0.851c-0.263,0.358 -0.772,0.652 -1.133,0.652c-0.389,0 -0.656,0.325 -0.656,0.8c0,0.652 -0.267,0.8 -1.437,0.8c-1.078,0 -1.488,0.191 -1.637,0.763c-0.11,0.42 -0.543,0.853 -0.963,0.963c-0.42,0.109 -0.763,0.486 -0.763,0.837c0,0.35 -0.258,0.637 -0.573,0.637c-0.315,0 -0.687,0.36 -0.827,0.8c-0.14,0.44 -0.496,0.8 -0.792,0.8c-0.316,0 -0.649,0.661 -0.808,1.6c-0.166,0.984 -0.488,1.6 -0.835,1.6c-0.311,0 -0.565,0.317 -0.565,0.704c0,0.387 -0.36,0.928 -0.8,1.203c-0.602,0.376 -0.8,0.933 -0.8,2.25c0,1.413 -0.154,1.79 -0.8,1.959c-0.773,0.202 -0.8,0.546 -0.8,10.247c0,9.77 0.021,10.037 0.8,10.037c0.667,0 0.8,0.267 0.8,1.604c0,1.109 0.247,1.815 0.8,2.289c0.44,0.377 0.8,1.095 0.8,1.596c0,0.543 0.242,0.911 0.6,0.911c0.33,0 0.6,0.225 0.6,0.5c0.001,0.275 0.451,1.023 1,1.662c0.55,0.639 1,1.404 1,1.7c0,0.296 0.258,0.538 0.573,0.538c0.315,0 0.687,0.36 0.827,0.8c0.14,0.44 0.562,0.8 0.938,0.8c0.376,0 0.992,0.36 1.369,0.8c0.377,0.44 1.047,0.8 1.489,0.8c0.537,0 0.804,0.265 0.804,0.8c0,0.667 0.267,0.8 1.6,0.8c1.333,0 1.6,0.133 1.6,0.8c0,0.667 0.267,0.8 1.6,0.8c0.88,0 1.6,0.18 1.6,0.4c0,0.255 3.333,0.4 9.2,0.4c5.867,0 9.2,-0.145 9.2,-0.4c0,-0.22 1.007,-0.4 2.237,-0.4c1.901,0 2.269,-0.12 2.447,-0.8c0.148,-0.566 0.546,-0.8 1.359,-0.8c0.717,0 1.338,-0.301 1.65,-0.8c0.275,-0.44 0.816,-0.8 1.203,-0.8c0.437,0 0.704,-0.303 0.704,-0.8c0,-0.533 0.267,-0.8 0.8,-0.8c0.533,0 0.8,-0.267 0.8,-0.8c0,-0.533 0.267,-0.8 0.8,-0.8c0.444,0 0.8,-0.267 0.8,-0.6c0,-0.33 0.276,-0.6 0.613,-0.6c0.336,0 0.73,-0.315 0.873,-0.7c0.144,-0.385 0.588,-0.935 0.988,-1.223c0.399,-0.287 0.726,-0.763 0.726,-1.057c0,-0.294 0.27,-0.638 0.6,-0.765c0.343,-0.131 0.6,-0.728 0.6,-1.396c0,-0.829 0.231,-1.226 0.8,-1.375c0.68,-0.178 0.8,-0.546 0.8,-2.447c0,-1.97 0.095,-2.237 0.8,-2.237c1.25,0 1.25,-16.603 0,-17c-0.66,-0.21 -0.8,-0.605 -0.8,-2.264c0,-1.674 -0.134,-2.046 -0.8,-2.22c-0.44,-0.115 -0.798,-0.413 -0.797,-0.663c0.007,-0.901 -1.804,-4.253 -2.297,-4.253c-0.278,0 -0.506,-0.287 -0.506,-0.637c0,-0.351 -0.36,-0.732 -0.8,-0.847c-0.443,-0.116 -0.8,-0.546 -0.8,-0.963c0,-0.486 -0.283,-0.753 -0.8,-0.753c-0.533,0 -0.8,-0.267 -0.8,-0.8c0,-0.533 -0.267,-0.8 -0.8,-0.8c-0.533,0 -0.8,-0.267 -0.8,-0.8c0,-0.533 -0.267,-0.8 -0.8,-0.8c-0.44,0 -0.8,-0.251 -0.8,-0.557c0,-0.638 -0.849,-1.043 -2.186,-1.043c-0.584,0 -0.997,-0.292 -1.13,-0.8c-0.159,-0.61 -0.546,-0.8 -1.627,-0.8c-0.798,0 -1.557,-0.245 -1.737,-0.562c-0.176,-0.308 -0.77,-0.644 -1.32,-0.745c-0.55,-0.101 16.28,-0.182 37.4,-0.179c21.12,0.003 37.905,0.081 37.3,0.173c-0.611,0.092 -1.1,0.421 -1.1,0.74c0,0.391 -0.456,0.573 -1.437,0.573c-1.101,0 -1.487,0.187 -1.647,0.8c-0.15,0.574 -0.546,0.8 -1.4,0.8c-0.854,0 -1.25,0.226 -1.4,0.8c-0.116,0.443 -0.546,0.8 -0.963,0.8c-0.472,0 -0.753,0.282 -0.753,0.755c0,0.549 -0.389,0.829 -1.421,1.023c-0.782,0.146 -1.533,0.557 -1.669,0.914c-0.137,0.356 -0.578,0.976 -0.979,1.377c-0.402,0.402 -0.731,1.091 -0.731,1.531c0,0.533 -0.267,0.8 -0.8,0.8c-0.517,0 -0.8,0.267 -0.8,0.753c0,0.417 -0.357,0.847 -0.8,0.963c-0.613,0.16 -0.8,0.546 -0.8,1.647c0,1.17 -0.148,1.437 -0.8,1.437c-0.646,0 -0.8,0.267 -0.8,1.386c0,0.976 -0.236,1.512 -0.8,1.814c-1.248,0.668 -1.248,19.558 0,19.884c0.606,0.159 0.8,0.546 0.8,1.6c0,1.054 0.194,1.441 0.8,1.6c0.597,0.156 0.8,0.546 0.8,1.536c0,0.975 0.212,1.393 0.8,1.58c0.44,0.14 0.8,0.529 0.8,0.864c0,0.336 0.36,0.705 0.8,0.82c0.574,0.15 0.8,0.546 0.8,1.4c0,0.835 0.228,1.25 0.763,1.39c0.42,0.11 0.853,0.543 0.963,0.963c0.109,0.42 0.486,0.763 0.837,0.763c0.35,0 0.997,0.36 1.437,0.8c0.44,0.44 1.16,0.8 1.6,0.8c0.533,0 0.8,0.267 0.8,0.8c0,0.642 0.267,0.8 1.353,0.8c1.017,0 1.406,0.199 1.563,0.8c0.178,0.68 0.546,0.8 2.447,0.8c1.23,0 2.237,0.18 2.237,0.4c0,0.255 3.333,0.4 9.2,0.4c5.867,0 9.2,-0.145 9.2,-0.4c0,-0.22 0.737,-0.4 1.637,-0.4c1.301,0 1.681,-0.164 1.847,-0.8c0.157,-0.601 0.546,-0.8 1.563,-0.8c1.086,0 1.353,-0.158 1.353,-0.8c0,-0.533 0.267,-0.8 0.8,-0.8c0.44,0 1.16,-0.36 1.6,-0.8c0.44,-0.44 1.087,-0.8 1.437,-0.8c0.351,0 0.732,-0.36 0.847,-0.8c0.115,-0.44 0.464,-0.8 0.775,-0.8c0.311,0 0.682,-0.301 0.823,-0.669c0.141,-0.369 0.586,-0.999 0.987,-1.4c0.402,-0.402 0.731,-1.07 0.731,-1.484c0,-0.417 0.357,-0.847 0.8,-0.963c0.44,-0.115 0.8,-0.513 0.8,-0.883c0,-0.371 0.36,-1.132 0.8,-1.692c0.44,-0.559 0.8,-1.623 0.8,-2.363c0,-0.884 0.191,-1.346 0.557,-1.346c0.833,0 1.043,-0.923 1.043,-4.59c0,-2.586 0.133,-3.376 0.6,-3.555c0.804,-0.308 0.804,-3.188 0,-3.855c-0.445,-0.37 -0.6,-1.356 -0.6,-3.83c0,-3.155 -0.521,-5.37 -1.264,-5.37c-0.185,0 -0.338,-0.405 -0.341,-0.9c-0.01,-1.527 -0.462,-2.7 -1.042,-2.7c-0.304,0 -0.553,-0.36 -0.553,-0.8c0,-0.533 -0.267,-0.8 -0.8,-0.8c-0.609,0 -0.8,-0.267 -0.8,-1.116c0,-0.791 -0.467,-1.546 -1.6,-2.588c-0.88,-0.809 -1.6,-1.628 -1.6,-1.819c0,-0.192 -0.45,-0.554 -1,-0.804c-0.55,-0.251 -1,-0.632 -1,-0.846c0,-0.215 -0.613,-0.506 -1.363,-0.646c-0.869,-0.163 -1.436,-0.533 -1.563,-1.019c-0.109,-0.419 -0.493,-0.762 -0.853,-0.762c-0.36,0 -1.041,-0.36 -1.513,-0.8c-0.488,-0.455 -1.412,-0.8 -2.141,-0.8c-0.739,0 -1.374,-0.241 -1.5,-0.569c-0.12,-0.313 -0.634,-0.648 -1.143,-0.746c-0.508,-0.097 5.117,-0.201 12.5,-0.231c11.122,-0.045 13.556,-0.155 14.2,-0.641c0.542,-0.411 1.837,-0.591 4.302,-0.6c3.399,-0.013 4.649,-0.331 5.794,-1.476c0.296,-0.295 0.794,-0.537 1.109,-0.537c0.314,0 0.571,-0.258 0.571,-0.573c0,-0.315 0.341,-0.681 0.757,-0.813c0.416,-0.132 0.849,-0.595 0.962,-1.027c0.114,-0.433 0.493,-0.787 0.844,-0.787c0.457,0 0.637,-0.382 0.637,-1.353c0,-1.017 0.199,-1.406 0.8,-1.563c0.688,-0.18 0.8,-0.546 0.8,-2.604c0,-1.759 0.159,-2.455 0.6,-2.625c0.434,-0.166 0.6,-0.846 0.6,-2.455c0,-1.609 -0.166,-2.289 -0.6,-2.455c-0.447,-0.172 -0.6,-0.884 -0.6,-2.788c0,-2.024 -0.167,-2.724 -0.8,-3.357c-0.44,-0.44 -0.8,-1.16 -0.8,-1.6c0,-0.533 -0.267,-0.8 -0.8,-0.8c-0.533,0 -0.8,-0.267 -0.8,-0.8c0,-0.44 -0.227,-0.8 -0.504,-0.8c-0.277,0 -0.728,-0.36 -1.003,-0.8c-0.275,-0.44 -0.768,-0.8 -1.096,-0.8c-0.329,0 -0.597,-0.254 -0.597,-0.565c0,-0.347 -0.616,-0.669 -1.6,-0.835c-0.88,-0.149 -1.6,-0.498 -1.6,-0.776c0,-0.404 -12.63,-0.547 -63.056,-0.715c-57.65,-0.191 -63.088,-0.265 -63.42,-0.859c-0.301,-0.538 -1.117,-0.65 -4.744,-0.65c-3.847,0 -4.477,-0.097 -5.18,-0.8c-0.533,-0.533 -1.333,-0.8 -2.4,-0.8c-1.333,0 -1.6,-0.133 -1.6,-0.8c0,-0.533 -0.267,-0.8 -0.8,-0.8c-0.44,0 -1.16,-0.36 -1.6,-0.8c-0.44,-0.44 -1.07,-0.8 -1.4,-0.8c-0.33,0 -0.6,-0.287 -0.6,-0.637c0,-0.351 -0.36,-0.732 -0.8,-0.847c-0.44,-0.115 -0.8,-0.475 -0.8,-0.8c0,-0.325 -0.36,-0.685 -0.8,-0.8c-0.44,-0.115 -0.8,-0.475 -0.8,-0.8c0,-0.325 -0.36,-0.685 -0.8,-0.8c-0.44,-0.115 -0.8,-0.475 -0.8,-0.8c0,-0.325 -0.36,-0.685 -0.8,-0.8c-0.44,-0.115 -0.8,-0.475 -0.8,-0.8c0,-0.325 -0.36,-0.685 -0.8,-0.8c-0.441,-0.115 -0.8,-0.546 -0.8,-0.959c0,-0.413 -0.36,-0.975 -0.8,-1.25c-0.44,-0.275 -0.8,-0.906 -0.8,-1.403c0,-0.637 -0.236,-0.904 -0.8,-0.904c-0.652,0 -0.8,-0.267 -0.8,-1.437c0,-1.101 -0.187,-1.487 -0.8,-1.647c-0.627,-0.164 -0.8,-0.546 -0.8,-1.763c0,-1.02 -0.275,-1.828 -0.8,-2.353c-0.44,-0.44 -0.8,-1.16 -0.8,-1.6c0,-0.797 0.267,-0.8 65.437,-0.8c65.101,0 65.439,-0.004 65.647,-0.8c0.173,-0.662 0.546,-0.8 2.159,-0.8c1.517,0 2.061,-0.178 2.45,-0.8c0.275,-0.44 0.816,-0.8 1.203,-0.8c0.387,0 1.064,-0.36 1.504,-0.8c0.44,-0.44 1.087,-0.8 1.437,-0.8c0.351,0 0.732,-0.36 0.847,-0.8c0.115,-0.44 0.475,-0.8 0.8,-0.8c0.325,0 0.685,-0.36 0.8,-0.8c0.115,-0.44 0.446,-0.8 0.736,-0.8c0.289,0 0.635,-0.343 0.768,-0.763c0.133,-0.42 0.489,-0.858 0.79,-0.973c0.3,-0.115 0.665,-0.747 0.809,-1.404c0.144,-0.656 0.511,-1.289 0.815,-1.406c0.305,-0.116 0.674,-0.851 0.82,-1.633c0.153,-0.811 0.503,-1.421 0.818,-1.421c0.333,0 0.652,-0.632 0.806,-1.6c0.155,-0.965 0.474,-1.6 0.805,-1.6c0.374,0 0.549,-0.511 0.549,-1.6c0,-1.333 0.133,-1.6 0.8,-1.6c0.645,0 0.8,-0.267 0.8,-1.373c0,-1.022 0.205,-1.438 0.8,-1.627c0.588,-0.187 0.8,-0.605 0.8,-1.58c0,-0.99 0.203,-1.38 0.8,-1.536c0.606,-0.159 0.8,-0.546 0.8,-1.6c0,-1.054 0.194,-1.441 0.8,-1.6c0.613,-0.16 0.8,-0.546 0.8,-1.647c0,-0.962 0.184,-1.437 0.557,-1.437c0.612,0 1.043,-0.841 1.043,-2.033c0,-0.422 0.36,-1.127 0.8,-1.567c0.44,-0.44 0.8,-1.231 0.8,-1.757c0,-0.527 0.253,-1.055 0.562,-1.173c0.31,-0.119 0.693,-0.813 0.852,-1.543c0.16,-0.73 0.627,-1.756 1.038,-2.281c0.411,-0.525 0.748,-1.56 0.748,-2.3c0,-0.925 0.186,-1.346 0.595,-1.346c0.385,0 0.686,-0.565 0.851,-1.6c0.155,-0.965 0.474,-1.6 0.805,-1.6c0.374,0 0.549,-0.511 0.549,-1.6c0,-1.333 0.133,-1.6 0.8,-1.6c0.663,0 0.8,-0.267 0.8,-1.553c0,-1.217 0.173,-1.599 0.8,-1.763c0.606,-0.159 0.8,-0.546 0.8,-1.6c0,-1.054 0.194,-1.441 0.8,-1.6c0.613,-0.16 0.8,-0.546 0.8,-1.647c0,-0.962 0.184,-1.437 0.557,-1.437c0.612,0 1.043,-0.841 1.043,-2.033c0,-0.422 0.36,-1.127 0.8,-1.567c0.525,-0.525 0.8,-1.333 0.8,-2.353c0,-1.217 0.173,-1.599 0.8,-1.763c0.606,-0.159 0.8,-0.546 0.8,-1.6c0,-1.054 0.194,-1.441 0.8,-1.6c0.585,-0.153 0.8,-0.546 0.8,-1.459c0,-0.732 0.244,-1.344 0.589,-1.476c0.324,-0.125 0.707,-0.853 0.851,-1.62c0.143,-0.766 0.491,-1.481 0.771,-1.589c0.281,-0.107 0.623,-0.795 0.76,-1.528c0.138,-0.732 0.511,-1.548 0.829,-1.812c0.318,-0.264 0.692,-1.086 0.831,-1.826c0.139,-0.74 0.504,-1.554 0.811,-1.809c0.307,-0.255 0.558,-1.149 0.558,-1.987c0,-1.173 0.184,-1.583 0.8,-1.778c0.591,-0.188 0.8,-0.605 0.8,-1.6c0,-0.995 0.209,-1.412 0.8,-1.6c0.58,-0.184 0.8,-0.605 0.8,-1.531c0,-0.843 0.271,-1.446 0.8,-1.776c0.452,-0.283 0.8,-0.933 0.8,-1.496c0,-0.549 0.36,-1.357 0.8,-1.797c0.44,-0.44 0.8,-1.25 0.8,-1.8c0,-0.55 0.36,-1.36 0.8,-1.8c0.489,-0.489 0.8,-1.333 0.8,-2.173c0,-1.022 0.205,-1.438 0.8,-1.627c0.58,-0.184 0.8,-0.605 0.8,-1.531c0,-0.843 0.271,-1.446 0.8,-1.776c0.5,-0.312 0.8,-0.933 0.8,-1.654c0,-0.637 0.259,-1.253 0.578,-1.375c0.318,-0.122 0.704,-0.906 0.858,-1.743c0.154,-0.837 0.614,-1.95 1.022,-2.475c0.408,-0.525 0.742,-1.29 0.742,-1.7c0,-0.41 0.151,-0.746 0.336,-0.746c0.474,0 1.264,-1.859 1.264,-2.976c0,-0.516 0.27,-1.042 0.6,-1.169c0.365,-0.14 0.6,-0.745 0.6,-1.546c0,-0.883 0.263,-1.481 0.8,-1.816c0.51,-0.319 0.8,-0.933 0.8,-1.696c0,-0.664 0.357,-1.554 0.8,-1.997c0.533,-0.533 0.8,-1.333 0.8,-2.4c0,-1.333 0.133,-1.6 0.8,-1.6c0.663,0 0.8,-0.267 0.8,-1.553c0,-1.217 0.173,-1.599 0.8,-1.763c0.705,-0.184 0.8,-0.546 0.8,-3.047c0,-1.625 0.171,-2.837 0.4,-2.837c0.257,0 0.4,-3.867 0.4,-10.8c0,-6.933 -0.143,-10.8 -0.4,-10.8c-0.22,0 -0.4,-0.72 -0.4,-1.6c0,-1.333 -0.133,-1.6 -0.8,-1.6c-0.667,0 -0.8,-0.267 -0.8,-1.6c0,-1.333 -0.133,-1.6 -0.8,-1.6c-0.533,0 -0.8,-0.267 -0.8,-0.8c0,-0.44 -0.36,-1.16 -0.8,-1.6c-0.44,-0.44 -0.8,-1.087 -0.8,-1.437c0,-0.351 -0.36,-0.732 -0.8,-0.847c-0.44,-0.115 -0.8,-0.464 -0.8,-0.775c0,-0.311 -0.301,-0.682 -0.669,-0.823c-0.369,-0.141 -0.999,-0.586 -1.4,-0.987c-0.402,-0.402 -1.07,-0.731 -1.484,-0.731c-0.417,0 -0.847,-0.357 -0.963,-0.8c-0.115,-0.44 -0.513,-0.8 -0.883,-0.8c-0.371,0 -1.132,-0.36 -1.692,-0.8c-0.559,-0.44 -1.614,-0.8 -2.343,-0.8c-0.847,0 -1.468,-0.253 -1.718,-0.7c-0.356,-0.638 -1.465,-0.712 -12.52,-0.831c-9.967,-0.108 -12.185,-0.233 -12.448,-0.7c-0.498,-0.886 -181.685,-0.854 -182.025,0.031c-0.348,0.907 -36.162,0.907 -36.51,0c-0.127,-0.33 -0.461,-0.6 -0.743,-0.6c-0.353,0 -0.562,-0.882 -0.672,-2.837c-0.121,-2.147 -0.327,-2.929 -0.845,-3.219c-0.503,-0.282 -0.685,-0.91 -0.685,-2.36c0,-1.544 -0.175,-2.087 -0.8,-2.477c-0.635,-0.397 -0.8,-0.933 -0.8,-2.603c0,-1.571 -0.203,-2.307 -0.8,-2.904c-0.609,-0.609 -0.8,-1.333 -0.8,-3.037c0,-1.901 -0.12,-2.269 -0.8,-2.447c-0.677,-0.177 -0.8,-0.546 -0.8,-2.4c0,-1.854 -0.123,-2.223 -0.8,-2.4c-0.694,-0.182 -0.8,-0.546 -0.8,-2.759c0,-2.117 -0.136,-2.635 -0.8,-3.05c-0.638,-0.398 -0.8,-0.933 -0.8,-2.641c0,-1.804 -0.126,-2.174 -0.8,-2.35c-0.676,-0.177 -0.8,-0.546 -0.8,-2.375c0,-1.556 -0.169,-2.231 -0.6,-2.396c-0.385,-0.148 -0.6,-0.766 -0.6,-1.728c0,-1.641 -0.7,-4.017 -1.183,-4.017c-0.168,0 -0.409,-1.007 -0.536,-2.238c-0.127,-1.23 -0.492,-2.445 -0.811,-2.7c-0.319,-0.254 -0.671,-1.344 -0.783,-2.422c-0.126,-1.22 -0.445,-2.097 -0.845,-2.32c-0.401,-0.225 -0.642,-0.892 -0.642,-1.777c0,-1.081 -0.19,-1.468 -0.8,-1.627c-0.601,-0.157 -0.8,-0.546 -0.8,-1.563c0,-0.82 -0.315,-1.668 -0.8,-2.153c-0.44,-0.44 -0.8,-1.16 -0.8,-1.6c0,-0.533 -0.267,-0.8 -0.8,-0.8c-0.667,0 -0.8,-0.267 -0.8,-1.6c0,-1.333 -0.133,-1.6 -0.8,-1.6c-0.533,0 -0.8,-0.267 -0.8,-0.8c0,-0.44 -0.36,-1.16 -0.8,-1.6c-0.44,-0.44 -0.8,-1.087 -0.8,-1.437c0,-0.351 -0.343,-0.728 -0.763,-0.837c-0.42,-0.11 -0.853,-0.543 -0.963,-0.963c-0.109,-0.42 -0.486,-0.763 -0.837,-0.763c-0.35,0 -0.637,-0.194 -0.637,-0.431c0,-0.56 -2.209,-2.769 -2.769,-2.769c-0.237,0 -0.431,-0.27 -0.431,-0.6c0,-0.33 -0.264,-0.6 -0.586,-0.6c-0.322,0 -0.779,-0.36 -1.014,-0.8c-0.28,-0.524 -0.838,-0.8 -1.614,-0.8c-0.919,0 -1.186,-0.18 -1.186,-0.8c0,-0.533 -0.267,-0.8 -0.8,-0.8c-0.44,0 -1.16,-0.36 -1.6,-0.8c-0.44,-0.44 -1.16,-0.8 -1.6,-0.8c-0.44,0 -1.16,-0.36 -1.6,-0.8c-0.503,-0.503 -1.333,-0.8 -2.237,-0.8c-1.101,0 -1.487,-0.187 -1.647,-0.8c-0.176,-0.672 -0.546,-0.8 -2.316,-0.8c-1.77,0 -2.14,-0.128 -2.316,-0.8c-0.33,-1.263 -77.884,-1.263 -77.884,0M213.2,139.8v12.6h-26.6c-24.072,0 -26.6,-0.061 -26.6,-0.637c0,-0.351 -0.36,-0.732 -0.8,-0.847c-0.684,-0.179 -0.8,-0.546 -0.8,-2.534c0,-1.425 -0.21,-2.535 -0.543,-2.868c-0.299,-0.299 -0.67,-1.557 -0.825,-2.795c-0.157,-1.254 -0.512,-2.341 -0.803,-2.452c-0.296,-0.114 -0.608,-1.106 -0.723,-2.301c-0.114,-1.193 -0.458,-2.288 -0.796,-2.535c-0.358,-0.262 -0.67,-1.347 -0.785,-2.727c-0.119,-1.439 -0.461,-2.592 -0.919,-3.098c-0.725,-0.801 -0.712,-0.806 2.169,-0.806c2.563,0 2.924,-0.093 3.109,-0.8c0.207,-0.79 0.546,-0.8 27.563,-0.8h27.353v12.6M274.4,139.8v12.6h-18.8h-18.8v-12.6v-12.6h18.8h18.8v12.6M364.8,128.138c0,0.516 -0.36,1.264 -0.8,1.662c-0.527,0.477 -0.8,1.232 -0.8,2.215c0,1.155 -0.18,1.539 -0.8,1.701c-0.613,0.16 -0.8,0.546 -0.8,1.647c0,1.006 -0.179,1.437 -0.595,1.437c-0.385,0 -0.686,0.565 -0.851,1.6c-0.155,0.965 -0.474,1.6 -0.805,1.6c-0.363,0 -0.549,0.486 -0.549,1.437c0,1.101 -0.187,1.487 -0.8,1.647c-0.627,0.164 -0.8,0.546 -0.8,1.763c0,1.061 -0.177,1.553 -0.557,1.553c-0.72,0 -1.043,0.878 -1.043,2.833c0,1.3 -0.136,1.567 -0.8,1.567c-0.533,0 -0.8,0.267 -0.8,0.8c0,0.792 -0.267,0.8 -28.2,0.8h-28.2v-12.6v-12.6h33.6h33.6v0.938M213.2,186.604v11.004l-19.5,-0.104l-19.5,-0.104l-0.128,-1c-0.071,-0.55 -0.356,-1.18 -0.634,-1.4c-0.278,-0.22 -0.627,-1.3 -0.775,-2.4c-0.147,-1.1 -0.537,-2.2 -0.866,-2.444c-0.362,-0.269 -0.597,-1.096 -0.597,-2.1c0,-1.083 -0.258,-1.914 -0.746,-2.402c-0.487,-0.487 -0.811,-1.527 -0.932,-2.994c-0.103,-1.236 -0.468,-2.565 -0.811,-2.954c-0.343,-0.388 -0.694,-1.471 -0.778,-2.406l-0.154,-1.7h22.71h22.711v11.004M274.4,186.6v11h-18.8h-18.8v-11v-11h18.8h18.8v11M342.8,176.357c0,0.417 -0.27,0.861 -0.6,0.988c-0.377,0.144 -0.6,0.756 -0.6,1.642c0,1.146 -0.151,1.413 -0.8,1.413c-0.663,0 -0.8,0.267 -0.8,1.553c0,1.217 -0.173,1.599 -0.8,1.763c-0.606,0.159 -0.8,0.546 -0.8,1.6c0,1.054 -0.194,1.441 -0.8,1.6c-0.613,0.16 -0.8,0.546 -0.8,1.647c0,0.962 -0.184,1.437 -0.557,1.437c-0.66,0 -1.043,0.857 -1.043,2.336c0,0.638 -0.324,1.274 -0.8,1.571c-0.583,0.364 -0.8,0.933 -0.8,2.096v1.597h-18h-18v-11v-11h22.6c21.908,0 22.6,0.023 22.6,0.757M213.2,233.6v12.4h-9.429c-7.847,0 -9.529,-0.101 -10.028,-0.6c-0.33,-0.33 -1.262,-0.602 -2.072,-0.605c-2.388,-0.009 -3.271,-0.385 -3.271,-1.392c0,-1.7 -0.5,-3.403 -0.999,-3.403c-0.309,0 -0.575,-0.788 -0.698,-2.067c-0.121,-1.263 -0.452,-2.253 -0.851,-2.544c-0.421,-0.309 -0.652,-1.064 -0.652,-2.137c0,-1.165 -0.239,-1.864 -0.8,-2.345c-0.612,-0.524 -0.8,-1.18 -0.8,-2.796c0,-1.578 -0.202,-2.313 -0.8,-2.911c-0.533,-0.533 -0.8,-1.333 -0.8,-2.4v-1.6h15.6h15.6v12.4M274.4,233.6v12.4h-18.8h-18.8v-12.4v-12.4h18.8h18.8v12.4M321.2,222.8c0,1.333 -0.133,1.6 -0.8,1.6c-0.645,0 -0.8,0.267 -0.8,1.373c0,1.022 -0.205,1.438 -0.8,1.627c-0.588,0.187 -0.8,0.605 -0.8,1.58c0,0.99 -0.203,1.38 -0.8,1.536c-0.606,0.159 -0.8,0.546 -0.8,1.6c0,1.054 -0.194,1.441 -0.8,1.6c-0.583,0.152 -0.8,0.546 -0.8,1.447c0,0.704 -0.345,1.582 -0.8,2.037c-0.44,0.44 -0.8,1.231 -0.8,1.757c0,0.527 -0.267,1.06 -0.593,1.185c-0.326,0.125 -0.709,0.954 -0.851,1.843c-0.142,0.888 -0.393,1.615 -0.559,1.615c-0.165,0 -0.524,0.54 -0.797,1.2l-0.497,1.2h-6.152h-6.151v-12.4v-12.4h11.8h11.8v1.6" id="path2" fill="#fcc419"></path><path d="" id="path3" fill="#000000"></path><path d="M8.8,1.6c0,0.667 -0.267,0.8 -1.6,0.8c-1.333,0 -1.6,0.133 -1.6,0.8c0,0.533 -0.267,0.8 -0.8,0.8c-0.533,0 -0.8,0.267 -0.8,0.8c0,0.533 -0.267,0.8 -0.8,0.8c-0.444,0 -0.8,0.267 -0.8,0.6c0,0.33 -0.36,0.96 -0.8,1.4c-0.533,0.533 -0.8,1.333 -0.8,2.4c0,0.88 -0.18,1.6 -0.4,1.6c-0.248,0 -0.4,2.133 -0.4,5.6c0,3.467 0.152,5.6 0.4,5.6c0.22,0 0.4,0.63 0.4,1.4c0,1.133 0.152,1.4 0.8,1.4c0.542,0 0.8,0.267 0.8,0.826c0,1.019 0.693,2.374 1.214,2.374c0.212,0 0.746,0.36 1.186,0.8c0.44,0.44 1.16,0.8 1.6,0.8c0.533,0 0.8,0.267 0.8,0.8c0,0.652 0.267,0.8 1.437,0.8c0.831,0 1.866,0.337 2.454,0.8c0.997,0.784 1.623,0.8 31.316,0.8c29.963,0 30.302,0.009 30.509,0.8c0.186,0.711 0.546,0.8 3.247,0.8c2.391,0 3.037,0.124 3.037,0.582c0,0.345 0.554,0.686 1.363,0.837c0.869,0.163 1.436,0.533 1.563,1.019c0.109,0.419 0.486,0.762 0.837,0.762c0.445,0 0.637,0.372 0.637,1.237c0,0.901 0.217,1.295 0.8,1.447c0.508,0.133 0.8,0.546 0.8,1.13c0,1.337 0.405,2.186 1.043,2.186c0.373,0 0.557,0.475 0.557,1.437c0,1.101 0.187,1.487 0.8,1.647c0.673,0.176 0.8,0.546 0.8,2.336c0,1.775 0.132,2.168 0.8,2.38c0.668,0.212 0.8,0.605 0.8,2.38c0,1.79 0.127,2.16 0.8,2.336c0.675,0.176 0.8,0.546 0.8,2.358c0,1.181 0.246,2.503 0.546,2.937c0.3,0.434 0.675,1.835 0.832,3.114c0.175,1.426 0.505,2.409 0.854,2.543c0.37,0.142 0.568,0.824 0.568,1.959c0,1.185 0.241,1.971 0.752,2.457c0.533,0.507 0.804,1.458 0.929,3.26c0.127,1.835 0.364,2.649 0.848,2.92c0.468,0.262 0.671,0.903 0.671,2.123c0,2.128 0.306,3.013 1.043,3.013c0.408,0 0.557,0.582 0.557,2.173c0,1.822 0.129,2.214 0.8,2.427c0.691,0.219 0.8,0.605 0.8,2.824c0,2.136 0.135,2.653 0.8,3.069c0.638,0.398 0.8,0.933 0.8,2.641c0,1.804 0.126,2.174 0.8,2.35c0.683,0.179 0.8,0.546 0.8,2.501c0,1.783 0.177,2.452 0.8,3.015c0.613,0.555 0.8,1.232 0.8,2.899c0,1.839 0.124,2.208 0.8,2.385c0.686,0.179 0.8,0.546 0.8,2.563c0,1.745 0.144,2.353 0.557,2.353c0.771,0 1.043,0.898 1.043,3.445c0,1.569 0.168,2.245 0.6,2.41c0.333,0.128 0.6,0.723 0.6,1.338c0,1.947 0.483,3.607 1.05,3.607c0.398,0 0.55,0.592 0.55,2.146c0,1.54 0.226,2.433 0.8,3.163c0.44,0.56 0.802,1.619 0.805,2.354c0.008,1.935 0.407,3.137 1.042,3.137c0.405,0 0.553,0.599 0.553,2.237c0,1.901 0.12,2.269 0.8,2.447c0.686,0.179 0.8,0.546 0.8,2.563c0,1.82 0.181,2.534 0.8,3.153c0.585,0.585 0.8,1.333 0.8,2.786c0,1.576 0.165,2.074 0.8,2.414c0.647,0.346 0.8,0.838 0.8,2.567c0,1.803 0.126,2.173 0.8,2.349c0.68,0.178 0.8,0.546 0.8,2.447c0,1.704 0.191,2.428 0.8,3.037c0.609,0.609 0.8,1.333 0.8,3.037c0,1.901 0.12,2.269 0.8,2.447c0.672,0.176 0.8,0.546 0.8,2.32c0,1.412 0.18,2.18 0.545,2.32c0.349,0.133 0.646,1.236 0.826,3.065c0.189,1.909 0.472,2.929 0.855,3.077c0.352,0.134 0.576,0.784 0.579,1.677c0.008,2.048 0.395,3.257 1.042,3.257c0.404,0 0.553,0.594 0.553,2.2c0,1.667 0.194,2.394 0.8,3c0.609,0.609 0.8,1.333 0.8,3.037c0,1.901 0.12,2.269 0.8,2.447c0.677,0.177 0.8,0.546 0.8,2.4c0,1.854 0.123,2.223 0.8,2.4c0.704,0.184 0.8,0.546 0.8,3c0,2.454 0.096,2.816 0.8,3c0.686,0.179 0.8,0.546 0.8,2.563c0,2.086 0.091,2.353 0.8,2.353c0.711,0 0.8,0.267 0.8,2.4c0,1.867 0.178,2.578 0.8,3.2c0.604,0.604 0.8,1.333 0.8,2.973c0,1.822 0.129,2.214 0.8,2.427c0.671,0.213 0.8,0.605 0.8,2.427c0,1.906 0.098,2.173 0.8,2.173c0.728,0 0.8,0.267 0.8,2.957c0,2.114 0.154,3.017 0.54,3.165c0.31,0.119 0.648,1.117 0.793,2.342c0.141,1.194 0.521,2.332 0.86,2.58c0.371,0.272 0.607,1.079 0.607,2.081c0,1.636 0.674,3.675 1.215,3.675c0.157,0 0.37,1.017 0.473,2.26c0.122,1.472 0.418,2.429 0.85,2.744c0.47,0.344 0.662,1.091 0.662,2.578c0,1.756 0.129,2.127 0.8,2.302c0.675,0.177 0.8,0.546 0.8,2.363c0,1.62 0.198,2.351 0.8,2.953c0.559,0.559 0.8,1.333 0.8,2.567c0,2.147 0.304,3.033 1.043,3.033c0.41,0 0.557,0.592 0.557,2.237c0,1.901 0.12,2.269 0.8,2.447c0.683,0.179 0.8,0.546 0.8,2.501c0,1.783 0.177,2.452 0.8,3.015c0.613,0.555 0.8,1.232 0.8,2.899c0,1.839 0.124,2.208 0.8,2.385c0.686,0.179 0.8,0.546 0.8,2.563c0,1.745 0.144,2.353 0.557,2.353c0.721,0 1.043,0.879 1.043,2.845c0,1.036 0.207,1.659 0.6,1.81c0.406,0.156 0.6,0.793 0.6,1.969c0,1.784 0.667,3.776 1.264,3.776c0.185,0 0.336,0.696 0.336,1.546c0,0.94 0.313,1.945 0.8,2.563c0.45,0.572 0.8,1.623 0.8,2.4c0,0.777 0.35,1.829 0.8,2.4c0.44,0.56 0.8,1.394 0.8,1.854c0,0.46 0.36,1.197 0.8,1.637c0.44,0.44 0.8,1.07 0.8,1.4c0,0.333 0.356,0.6 0.8,0.6c0.652,0 0.8,0.267 0.8,1.437c0,1.101 0.187,1.487 0.8,1.647c0.443,0.116 0.8,0.546 0.8,0.963c0,0.486 0.283,0.753 0.8,0.753c0.624,0 0.8,0.267 0.8,1.213c0,0.735 0.248,1.307 0.631,1.454c0.346,0.133 0.792,0.668 0.99,1.188c0.197,0.52 0.634,0.945 0.969,0.945c0.343,0 0.61,0.35 0.61,0.8c0,0.533 0.267,0.8 0.8,0.8c0.533,0 0.8,0.267 0.8,0.8c0,0.44 0.172,0.8 0.382,0.8c0.481,0 2.418,1.915 2.418,2.391c0,0.195 0.36,0.469 0.8,0.609c0.44,0.14 0.8,0.512 0.8,0.827c0,0.315 0.36,0.573 0.8,0.573c0.533,0 0.8,0.267 0.8,0.8c0,0.533 0.267,0.8 0.8,0.8c0.452,0 0.8,0.267 0.8,0.613c0,0.336 0.315,0.725 0.7,0.864c0.385,0.138 1.022,0.582 1.416,0.987c0.393,0.405 1.158,0.736 1.7,0.736c0.717,0 0.984,0.217 0.984,0.8c0,0.533 0.267,0.8 0.8,0.8c0.44,0 0.8,0.251 0.8,0.557c0,0.645 0.852,1.043 2.233,1.043c0.7,0 0.967,0.221 0.967,0.8c0,0.642 0.267,0.8 1.353,0.8c1.017,0 1.406,0.199 1.563,0.8c0.115,0.44 0.513,0.8 0.883,0.8c0.371,0 1.132,0.36 1.692,0.8c0.559,0.44 1.623,0.8 2.363,0.8c0.875,0 1.346,0.192 1.346,0.55c0,0.571 1.663,1.05 3.65,1.05c0.709,0 1.15,0.211 1.15,0.55c0,0.832 1.871,1.05 9.001,1.05c5.291,0 6.594,0.112 6.999,0.6c0.44,0.53 -0.394,0.6 -7.118,0.6c-7.823,0 -8.882,0.118 -8.882,0.992c0,0.317 -0.771,0.58 -2.067,0.705c-1.263,0.121 -2.253,0.452 -2.544,0.851c-0.263,0.358 -0.772,0.652 -1.133,0.652c-0.389,0 -0.656,0.325 -0.656,0.8c0,0.652 -0.267,0.8 -1.437,0.8c-1.078,0 -1.488,0.191 -1.637,0.763c-0.11,0.42 -0.543,0.853 -0.963,0.963c-0.42,0.109 -0.763,0.486 -0.763,0.837c0,0.35 -0.258,0.637 -0.573,0.637c-0.315,0 -0.687,0.36 -0.827,0.8c-0.14,0.44 -0.496,0.8 -0.792,0.8c-0.316,0 -0.649,0.661 -0.808,1.6c-0.166,0.984 -0.488,1.6 -0.835,1.6c-0.311,0 -0.565,0.317 -0.565,0.704c0,0.387 -0.36,0.928 -0.8,1.203c-0.602,0.376 -0.8,0.933 -0.8,2.25c0,1.413 -0.154,1.79 -0.8,1.959c-0.773,0.202 -0.8,0.546 -0.8,10.247c0,9.77 0.021,10.037 0.8,10.037c0.667,0 0.8,0.267 0.8,1.604c0,1.109 0.247,1.815 0.8,2.289c0.44,0.377 0.8,1.095 0.8,1.596c0,0.543 0.242,0.911 0.6,0.911c0.33,0 0.6,0.225 0.6,0.5c0.001,0.275 0.451,1.023 1,1.662c0.55,0.639 1,1.404 1,1.7c0,0.296 0.258,0.538 0.573,0.538c0.315,0 0.687,0.36 0.827,0.8c0.14,0.44 0.562,0.8 0.938,0.8c0.376,0 0.992,0.36 1.369,0.8c0.377,0.44 1.047,0.8 1.489,0.8c0.537,0 0.804,0.265 0.804,0.8c0,0.667 0.267,0.8 1.6,0.8c1.333,0 1.6,0.133 1.6,0.8c0,0.667 0.267,0.8 1.6,0.8c0.88,0 1.6,0.18 1.6,0.4c0,0.255 3.333,0.4 9.2,0.4c5.867,0 9.2,-0.145 9.2,-0.4c0,-0.22 1.007,-0.4 2.237,-0.4c1.901,0 2.269,-0.12 2.447,-0.8c0.148,-0.566 0.546,-0.8 1.359,-0.8c0.717,0 1.338,-0.301 1.65,-0.8c0.275,-0.44 0.816,-0.8 1.203,-0.8c0.437,0 0.704,-0.303 0.704,-0.8c0,-0.533 0.267,-0.8 0.8,-0.8c0.533,0 0.8,-0.267 0.8,-0.8c0,-0.533 0.267,-0.8 0.8,-0.8c0.444,0 0.8,-0.267 0.8,-0.6c0,-0.33 0.276,-0.6 0.613,-0.6c0.336,0 0.73,-0.315 0.873,-0.7c0.144,-0.385 0.588,-0.935 0.988,-1.223c0.399,-0.287 0.726,-0.763 0.726,-1.057c0,-0.294 0.27,-0.638 0.6,-0.765c0.343,-0.131 0.6,-0.728 0.6,-1.396c0,-0.829 0.231,-1.226 0.8,-1.375c0.68,-0.178 0.8,-0.546 0.8,-2.447c0,-1.97 0.095,-2.237 0.8,-2.237c1.25,0 1.25,-16.603 0,-17c-0.66,-0.21 -0.8,-0.605 -0.8,-2.264c0,-1.674 -0.134,-2.046 -0.8,-2.22c-0.44,-0.115 -0.798,-0.413 -0.797,-0.663c0.007,-0.901 -1.804,-4.253 -2.297,-4.253c-0.278,0 -0.506,-0.287 -0.506,-0.637c0,-0.351 -0.36,-0.732 -0.8,-0.847c-0.443,-0.116 -0.8,-0.546 -0.8,-0.963c0,-0.486 -0.283,-0.753 -0.8,-0.753c-0.533,0 -0.8,-0.267 -0.8,-0.8c0,-0.533 -0.267,-0.8 -0.8,-0.8c-0.533,0 -0.8,-0.267 -0.8,-0.8c0,-0.533 -0.267,-0.8 -0.8,-0.8c-0.44,0 -0.8,-0.251 -0.8,-0.557c0,-0.638 -0.849,-1.043 -2.186,-1.043c-0.584,0 -0.997,-0.292 -1.13,-0.8c-0.159,-0.61 -0.546,-0.8 -1.627,-0.8c-0.798,0 -1.557,-0.245 -1.737,-0.562c-0.176,-0.308 -0.77,-0.644 -1.32,-0.745c-0.55,-0.101 16.28,-0.182 37.4,-0.179c21.12,0.003 37.905,0.081 37.3,0.173c-0.611,0.092 -1.1,0.421 -1.1,0.74c0,0.391 -0.456,0.573 -1.437,0.573c-1.101,0 -1.487,0.187 -1.647,0.8c-0.15,0.574 -0.546,0.8 -1.4,0.8c-0.854,0 -1.25,0.226 -1.4,0.8c-0.116,0.443 -0.546,0.8 -0.963,0.8c-0.472,0 -0.753,0.282 -0.753,0.755c0,0.549 -0.389,0.829 -1.421,1.023c-0.782,0.146 -1.533,0.557 -1.669,0.914c-0.137,0.356 -0.578,0.976 -0.979,1.377c-0.402,0.402 -0.731,1.091 -0.731,1.531c0,0.533 -0.267,0.8 -0.8,0.8c-0.517,0 -0.8,0.267 -0.8,0.753c0,0.417 -0.357,0.847 -0.8,0.963c-0.613,0.16 -0.8,0.546 -0.8,1.647c0,1.17 -0.148,1.437 -0.8,1.437c-0.646,0 -0.8,0.267 -0.8,1.386c0,0.976 -0.236,1.512 -0.8,1.814c-1.248,0.668 -1.248,19.558 0,19.884c0.606,0.159 0.8,0.546 0.8,1.6c0,1.054 0.194,1.441 0.8,1.6c0.597,0.156 0.8,0.546 0.8,1.536c0,0.975 0.212,1.393 0.8,1.58c0.44,0.14 0.8,0.529 0.8,0.864c0,0.336 0.36,0.705 0.8,0.82c0.574,0.15 0.8,0.546 0.8,1.4c0,0.835 0.228,1.25 0.763,1.39c0.42,0.11 0.853,0.543 0.963,0.963c0.109,0.42 0.486,0.763 0.837,0.763c0.35,0 0.997,0.36 1.437,0.8c0.44,0.44 1.16,0.8 1.6,0.8c0.533,0 0.8,0.267 0.8,0.8c0,0.642 0.267,0.8 1.353,0.8c1.017,0 1.406,0.199 1.563,0.8c0.178,0.68 0.546,0.8 2.447,0.8c1.23,0 2.237,0.18 2.237,0.4c0,0.255 3.333,0.4 9.2,0.4c5.867,0 9.2,-0.145 9.2,-0.4c0,-0.22 0.737,-0.4 1.637,-0.4c1.301,0 1.681,-0.164 1.847,-0.8c0.157,-0.601 0.546,-0.8 1.563,-0.8c1.086,0 1.353,-0.158 1.353,-0.8c0,-0.533 0.267,-0.8 0.8,-0.8c0.44,0 1.16,-0.36 1.6,-0.8c0.44,-0.44 1.087,-0.8 1.437,-0.8c0.351,0 0.732,-0.36 0.847,-0.8c0.115,-0.44 0.464,-0.8 0.775,-0.8c0.311,0 0.682,-0.301 0.823,-0.669c0.141,-0.369 0.586,-0.999 0.987,-1.4c0.402,-0.402 0.731,-1.07 0.731,-1.484c0,-0.417 0.357,-0.847 0.8,-0.963c0.44,-0.115 0.8,-0.513 0.8,-0.883c0,-0.371 0.36,-1.132 0.8,-1.692c0.44,-0.559 0.8,-1.623 0.8,-2.363c0,-0.884 0.191,-1.346 0.557,-1.346c0.833,0 1.043,-0.923 1.043,-4.59c0,-2.586 0.133,-3.376 0.6,-3.555c0.804,-0.308 0.804,-3.188 0,-3.855c-0.445,-0.37 -0.6,-1.356 -0.6,-3.83c0,-3.155 -0.521,-5.37 -1.264,-5.37c-0.185,0 -0.338,-0.405 -0.341,-0.9c-0.01,-1.527 -0.462,-2.7 -1.042,-2.7c-0.304,0 -0.553,-0.36 -0.553,-0.8c0,-0.533 -0.267,-0.8 -0.8,-0.8c-0.609,0 -0.8,-0.267 -0.8,-1.116c0,-0.791 -0.467,-1.546 -1.6,-2.588c-0.88,-0.809 -1.6,-1.628 -1.6,-1.819c0,-0.192 -0.45,-0.554 -1,-0.804c-0.55,-0.251 -1,-0.632 -1,-0.846c0,-0.215 -0.613,-0.506 -1.363,-0.646c-0.869,-0.163 -1.436,-0.533 -1.563,-1.019c-0.109,-0.419 -0.493,-0.762 -0.853,-0.762c-0.36,0 -1.041,-0.36 -1.513,-0.8c-0.488,-0.455 -1.412,-0.8 -2.141,-0.8c-0.739,0 -1.374,-0.241 -1.5,-0.569c-0.12,-0.313 -0.634,-0.648 -1.143,-0.746c-0.508,-0.097 5.117,-0.201 12.5,-0.231c11.122,-0.045 13.556,-0.155 14.2,-0.641c0.542,-0.411 1.837,-0.591 4.302,-0.6c3.399,-0.013 4.649,-0.331 5.794,-1.476c0.296,-0.295 0.794,-0.537 1.109,-0.537c0.314,0 0.571,-0.258 0.571,-0.573c0,-0.315 0.341,-0.681 0.757,-0.813c0.416,-0.132 0.849,-0.595 0.962,-1.027c0.114,-0.433 0.493,-0.787 0.844,-0.787c0.457,0 0.637,-0.382 0.637,-1.353c0,-1.017 0.199,-1.406 0.8,-1.563c0.688,-0.18 0.8,-0.546 0.8,-2.604c0,-1.759 0.159,-2.455 0.6,-2.625c0.434,-0.166 0.6,-0.846 0.6,-2.455c0,-1.609 -0.166,-2.289 -0.6,-2.455c-0.447,-0.172 -0.6,-0.884 -0.6,-2.788c0,-2.024 -0.167,-2.724 -0.8,-3.357c-0.44,-0.44 -0.8,-1.16 -0.8,-1.6c0,-0.533 -0.267,-0.8 -0.8,-0.8c-0.533,0 -0.8,-0.267 -0.8,-0.8c0,-0.44 -0.227,-0.8 -0.504,-0.8c-0.277,0 -0.728,-0.36 -1.003,-0.8c-0.275,-0.44 -0.768,-0.8 -1.096,-0.8c-0.329,0 -0.597,-0.254 -0.597,-0.565c0,-0.347 -0.616,-0.669 -1.6,-0.835c-0.88,-0.149 -1.6,-0.498 -1.6,-0.776c0,-0.404 -12.63,-0.547 -63.056,-0.715c-57.65,-0.191 -63.088,-0.265 -63.42,-0.859c-0.301,-0.538 -1.117,-0.65 -4.744,-0.65c-3.847,0 -4.477,-0.097 -5.18,-0.8c-0.533,-0.533 -1.333,-0.8 -2.4,-0.8c-1.333,0 -1.6,-0.133 -1.6,-0.8c0,-0.533 -0.267,-0.8 -0.8,-0.8c-0.44,0 -1.16,-0.36 -1.6,-0.8c-0.44,-0.44 -1.07,-0.8 -1.4,-0.8c-0.33,0 -0.6,-0.287 -0.6,-0.637c0,-0.351 -0.36,-0.732 -0.8,-0.847c-0.44,-0.115 -0.8,-0.475 -0.8,-0.8c0,-0.325 -0.36,-0.685 -0.8,-0.8c-0.44,-0.115 -0.8,-0.475 -0.8,-0.8c0,-0.325 -0.36,-0.685 -0.8,-0.8c-0.44,-0.115 -0.8,-0.475 -0.8,-0.8c0,-0.325 -0.36,-0.685 -0.8,-0.8c-0.44,-0.115 -0.8,-0.475 -0.8,-0.8c0,-0.325 -0.36,-0.685 -0.8,-0.8c-0.441,-0.115 -0.8,-0.546 -0.8,-0.959c0,-0.413 -0.36,-0.975 -0.8,-1.25c-0.44,-0.275 -0.8,-0.906 -0.8,-1.403c0,-0.637 -0.236,-0.904 -0.8,-0.904c-0.652,0 -0.8,-0.267 -0.8,-1.437c0,-1.101 -0.187,-1.487 -0.8,-1.647c-0.627,-0.164 -0.8,-0.546 -0.8,-1.763c0,-1.02 -0.275,-1.828 -0.8,-2.353c-0.44,-0.44 -0.8,-1.16 -0.8,-1.6c0,-0.797 0.267,-0.8 65.437,-0.8c65.101,0 65.439,-0.004 65.647,-0.8c0.173,-0.662 0.546,-0.8 2.159,-0.8c1.517,0 2.061,-0.178 2.45,-0.8c0.275,-0.44 0.816,-0.8 1.203,-0.8c0.387,0 1.064,-0.36 1.504,-0.8c0.44,-0.44 1.087,-0.8 1.437,-0.8c0.351,0 0.732,-0.36 0.847,-0.8c0.115,-0.44 0.475,-0.8 0.8,-0.8c0.325,0 0.685,-0.36 0.8,-0.8c0.115,-0.44 0.446,-0.8 0.736,-0.8c0.289,0 0.635,-0.343 0.768,-0.763c0.133,-0.42 0.489,-0.858 0.79,-0.973c0.3,-0.115 0.665,-0.747 0.809,-1.404c0.144,-0.656 0.511,-1.289 0.815,-1.406c0.305,-0.116 0.674,-0.851 0.82,-1.633c0.153,-0.811 0.503,-1.421 0.818,-1.421c0.333,0 0.652,-0.632 0.806,-1.6c0.155,-0.965 0.474,-1.6 0.805,-1.6c0.374,0 0.549,-0.511 0.549,-1.6c0,-1.333 0.133,-1.6 0.8,-1.6c0.645,0 0.8,-0.267 0.8,-1.373c0,-1.022 0.205,-1.438 0.8,-1.627c0.588,-0.187 0.8,-0.605 0.8,-1.58c0,-0.99 0.203,-1.38 0.8,-1.536c0.606,-0.159 0.8,-0.546 0.8,-1.6c0,-1.054 0.194,-1.441 0.8,-1.6c0.613,-0.16 0.8,-0.546 0.8,-1.647c0,-0.962 0.184,-1.437 0.557,-1.437c0.612,0 1.043,-0.841 1.043,-2.033c0,-0.422 0.36,-1.127 0.8,-1.567c0.44,-0.44 0.8,-1.231 0.8,-1.757c0,-0.527 0.253,-1.055 0.562,-1.173c0.31,-0.119 0.693,-0.813 0.852,-1.543c0.16,-0.73 0.627,-1.756 1.038,-2.281c0.411,-0.525 0.748,-1.56 0.748,-2.3c0,-0.925 0.186,-1.346 0.595,-1.346c0.385,0 0.686,-0.565 0.851,-1.6c0.155,-0.965 0.474,-1.6 0.805,-1.6c0.374,0 0.549,-0.511 0.549,-1.6c0,-1.333 0.133,-1.6 0.8,-1.6c0.663,0 0.8,-0.267 0.8,-1.553c0,-1.217 0.173,-1.599 0.8,-1.763c0.606,-0.159 0.8,-0.546 0.8,-1.6c0,-1.054 0.194,-1.441 0.8,-1.6c0.613,-0.16 0.8,-0.546 0.8,-1.647c0,-0.962 0.184,-1.437 0.557,-1.437c0.612,0 1.043,-0.841 1.043,-2.033c0,-0.422 0.36,-1.127 0.8,-1.567c0.525,-0.525 0.8,-1.333 0.8,-2.353c0,-1.217 0.173,-1.599 0.8,-1.763c0.606,-0.159 0.8,-0.546 0.8,-1.6c0,-1.054 0.194,-1.441 0.8,-1.6c0.585,-0.153 0.8,-0.546 0.8,-1.459c0,-0.732 0.244,-1.344 0.589,-1.476c0.324,-0.125 0.707,-0.853 0.851,-1.62c0.143,-0.766 0.491,-1.481 0.771,-1.589c0.281,-0.107 0.623,-0.795 0.76,-1.528c0.138,-0.732 0.511,-1.548 0.829,-1.812c0.318,-0.264 0.692,-1.086 0.831,-1.826c0.139,-0.74 0.504,-1.554 0.811,-1.809c0.307,-0.255 0.558,-1.149 0.558,-1.987c0,-1.173 0.184,-1.583 0.8,-1.778c0.591,-0.188 0.8,-0.605 0.8,-1.6c0,-0.995 0.209,-1.412 0.8,-1.6c0.58,-0.184 0.8,-0.605 0.8,-1.531c0,-0.843 0.271,-1.446 0.8,-1.776c0.452,-0.283 0.8,-0.933 0.8,-1.496c0,-0.549 0.36,-1.357 0.8,-1.797c0.44,-0.44 0.8,-1.25 0.8,-1.8c0,-0.55 0.36,-1.36 0.8,-1.8c0.489,-0.489 0.8,-1.333 0.8,-2.173c0,-1.022 0.205,-1.438 0.8,-1.627c0.58,-0.184 0.8,-0.605 0.8,-1.531c0,-0.843 0.271,-1.446 0.8,-1.776c0.5,-0.312 0.8,-0.933 0.8,-1.654c0,-0.637 0.259,-1.253 0.578,-1.375c0.318,-0.122 0.704,-0.906 0.858,-1.743c0.154,-0.837 0.614,-1.95 1.022,-2.475c0.408,-0.525 0.742,-1.29 0.742,-1.7c0,-0.41 0.151,-0.746 0.336,-0.746c0.474,0 1.264,-1.859 1.264,-2.976c0,-0.516 0.27,-1.042 0.6,-1.169c0.365,-0.14 0.6,-0.745 0.6,-1.546c0,-0.883 0.263,-1.481 0.8,-1.816c0.51,-0.319 0.8,-0.933 0.8,-1.696c0,-0.664 0.357,-1.554 0.8,-1.997c0.533,-0.533 0.8,-1.333 0.8,-2.4c0,-1.333 0.133,-1.6 0.8,-1.6c0.663,0 0.8,-0.267 0.8,-1.553c0,-1.217 0.173,-1.599 0.8,-1.763c0.705,-0.184 0.8,-0.546 0.8,-3.047c0,-1.625 0.171,-2.837 0.4,-2.837c0.257,0 0.4,-3.867 0.4,-10.8c0,-6.933 -0.143,-10.8 -0.4,-10.8c-0.22,0 -0.4,-0.72 -0.4,-1.6c0,-1.333 -0.133,-1.6 -0.8,-1.6c-0.667,0 -0.8,-0.267 -0.8,-1.6c0,-1.333 -0.133,-1.6 -0.8,-1.6c-0.533,0 -0.8,-0.267 -0.8,-0.8c0,-0.44 -0.36,-1.16 -0.8,-1.6c-0.44,-0.44 -0.8,-1.087 -0.8,-1.437c0,-0.351 -0.36,-0.732 -0.8,-0.847c-0.44,-0.115 -0.8,-0.464 -0.8,-0.775c0,-0.311 -0.301,-0.682 -0.669,-0.823c-0.369,-0.141 -0.999,-0.586 -1.4,-0.987c-0.402,-0.402 -1.07,-0.731 -1.484,-0.731c-0.417,0 -0.847,-0.357 -0.963,-0.8c-0.115,-0.44 -0.513,-0.8 -0.883,-0.8c-0.371,0 -1.132,-0.36 -1.692,-0.8c-0.559,-0.44 -1.614,-0.8 -2.343,-0.8c-0.847,0 -1.468,-0.253 -1.718,-0.7c-0.356,-0.638 -1.465,-0.712 -12.52,-0.831c-9.967,-0.108 -12.185,-0.233 -12.448,-0.7c-0.498,-0.886 -181.685,-0.854 -182.025,0.031c-0.348,0.907 -36.162,0.907 -36.51,0c-0.127,-0.33 -0.461,-0.6 -0.743,-0.6c-0.353,0 -0.562,-0.882 -0.672,-2.837c-0.121,-2.147 -0.327,-2.929 -0.845,-3.219c-0.503,-0.282 -0.685,-0.91 -0.685,-2.36c0,-1.544 -0.175,-2.087 -0.8,-2.477c-0.635,-0.397 -0.8,-0.933 -0.8,-2.603c0,-1.571 -0.203,-2.307 -0.8,-2.904c-0.609,-0.609 -0.8,-1.333 -0.8,-3.037c0,-1.901 -0.12,-2.269 -0.8,-2.447c-0.677,-0.177 -0.8,-0.546 -0.8,-2.4c0,-1.854 -0.123,-2.223 -0.8,-2.4c-0.694,-0.182 -0.8,-0.546 -0.8,-2.759c0,-2.117 -0.136,-2.635 -0.8,-3.05c-0.638,-0.398 -0.8,-0.933 -0.8,-2.641c0,-1.804 -0.126,-2.174 -0.8,-2.35c-0.676,-0.177 -0.8,-0.546 -0.8,-2.375c0,-1.556 -0.169,-2.231 -0.6,-2.396c-0.385,-0.148 -0.6,-0.766 -0.6,-1.728c0,-1.641 -0.7,-4.017 -1.183,-4.017c-0.168,0 -0.409,-1.007 -0.536,-2.238c-0.127,-1.23 -0.492,-2.445 -0.811,-2.7c-0.319,-0.254 -0.671,-1.344 -0.783,-2.422c-0.126,-1.22 -0.445,-2.097 -0.845,-2.32c-0.401,-0.225 -0.642,-0.892 -0.642,-1.777c0,-1.081 -0.19,-1.468 -0.8,-1.627c-0.601,-0.157 -0.8,-0.546 -0.8,-1.563c0,-0.82 -0.315,-1.668 -0.8,-2.153c-0.44,-0.44 -0.8,-1.16 -0.8,-1.6c0,-0.533 -0.267,-0.8 -0.8,-0.8c-0.667,0 -0.8,-0.267 -0.8,-1.6c0,-1.333 -0.133,-1.6 -0.8,-1.6c-0.533,0 -0.8,-0.267 -0.8,-0.8c0,-0.44 -0.36,-1.16 -0.8,-1.6c-0.44,-0.44 -0.8,-1.087 -0.8,-1.437c0,-0.351 -0.343,-0.728 -0.763,-0.837c-0.42,-0.11 -0.853,-0.543 -0.963,-0.963c-0.109,-0.42 -0.486,-0.763 -0.837,-0.763c-0.35,0 -0.637,-0.194 -0.637,-0.431c0,-0.56 -2.209,-2.769 -2.769,-2.769c-0.237,0 -0.431,-0.27 -0.431,-0.6c0,-0.33 -0.264,-0.6 -0.586,-0.6c-0.322,0 -0.779,-0.36 -1.014,-0.8c-0.28,-0.524 -0.838,-0.8 -1.614,-0.8c-0.919,0 -1.186,-0.18 -1.186,-0.8c0,-0.533 -0.267,-0.8 -0.8,-0.8c-0.44,0 -1.16,-0.36 -1.6,-0.8c-0.44,-0.44 -1.16,-0.8 -1.6,-0.8c-0.44,0 -1.16,-0.36 -1.6,-0.8c-0.503,-0.503 -1.333,-0.8 -2.237,-0.8c-1.101,0 -1.487,-0.187 -1.647,-0.8c-0.176,-0.672 -0.546,-0.8 -2.316,-0.8c-1.77,0 -2.14,-0.128 -2.316,-0.8c-0.33,-1.263 -77.884,-1.263 -77.884,0M213.2,139.8v12.6h-26.6c-24.072,0 -26.6,-0.061 -26.6,-0.637c0,-0.351 -0.36,-0.732 -0.8,-0.847c-0.684,-0.179 -0.8,-0.546 -0.8,-2.534c0,-1.425 -0.21,-2.535 -0.543,-2.868c-0.299,-0.299 -0.67,-1.557 -0.825,-2.795c-0.157,-1.254 -0.512,-2.341 -0.803,-2.452c-0.296,-0.114 -0.608,-1.106 -0.723,-2.301c-0.114,-1.193 -0.458,-2.288 -0.796,-2.535c-0.358,-0.262 -0.67,-1.347 -0.785,-2.727c-0.119,-1.439 -0.461,-2.592 -0.919,-3.098c-0.725,-0.801 -0.712,-0.806 2.169,-0.806c2.563,0 2.924,-0.093 3.109,-0.8c0.207,-0.79 0.546,-0.8 27.563,-0.8h27.353v12.6M274.4,139.8v12.6h-18.8h-18.8v-12.6v-12.6h18.8h18.8v12.6M364.8,128.138c0,0.516 -0.36,1.264 -0.8,1.662c-0.527,0.477 -0.8,1.232 -0.8,2.215c0,1.155 -0.18,1.539 -0.8,1.701c-0.613,0.16 -0.8,0.546 -0.8,1.647c0,1.006 -0.179,1.437 -0.595,1.437c-0.385,0 -0.686,0.565 -0.851,1.6c-0.155,0.965 -0.474,1.6 -0.805,1.6c-0.363,0 -0.549,0.486 -0.549,1.437c0,1.101 -0.187,1.487 -0.8,1.647c-0.627,0.164 -0.8,0.546 -0.8,1.763c0,1.061 -0.177,1.553 -0.557,1.553c-0.72,0 -1.043,0.878 -1.043,2.833c0,1.3 -0.136,1.567 -0.8,1.567c-0.533,0 -0.8,0.267 -0.8,0.8c0,0.792 -0.267,0.8 -28.2,0.8h-28.2v-12.6v-12.6h33.6h33.6v0.938M213.2,186.604v11.004l-19.5,-0.104l-19.5,-0.104l-0.128,-1c-0.071,-0.55 -0.356,-1.18 -0.634,-1.4c-0.278,-0.22 -0.627,-1.3 -0.775,-2.4c-0.147,-1.1 -0.537,-2.2 -0.866,-2.444c-0.362,-0.269 -0.597,-1.096 -0.597,-2.1c0,-1.083 -0.258,-1.914 -0.746,-2.402c-0.487,-0.487 -0.811,-1.527 -0.932,-2.994c-0.103,-1.236 -0.468,-2.565 -0.811,-2.954c-0.343,-0.388 -0.694,-1.471 -0.778,-2.406l-0.154,-1.7h22.71h22.711v11.004M274.4,186.6v11h-18.8h-18.8v-11v-11h18.8h18.8v11M342.8,176.357c0,0.417 -0.27,0.861 -0.6,0.988c-0.377,0.144 -0.6,0.756 -0.6,1.642c0,1.146 -0.151,1.413 -0.8,1.413c-0.663,0 -0.8,0.267 -0.8,1.553c0,1.217 -0.173,1.599 -0.8,1.763c-0.606,0.159 -0.8,0.546 -0.8,1.6c0,1.054 -0.194,1.441 -0.8,1.6c-0.613,0.16 -0.8,0.546 -0.8,1.647c0,0.962 -0.184,1.437 -0.557,1.437c-0.66,0 -1.043,0.857 -1.043,2.336c0,0.638 -0.324,1.274 -0.8,1.571c-0.583,0.364 -0.8,0.933 -0.8,2.096v1.597h-18h-18v-11v-11h22.6c21.908,0 22.6,0.023 22.6,0.757M213.2,233.6v12.4h-9.429c-7.847,0 -9.529,-0.101 -10.028,-0.6c-0.33,-0.33 -1.262,-0.602 -2.072,-0.605c-2.388,-0.009 -3.271,-0.385 -3.271,-1.392c0,-1.7 -0.5,-3.403 -0.999,-3.403c-0.309,0 -0.575,-0.788 -0.698,-2.067c-0.121,-1.263 -0.452,-2.253 -0.851,-2.544c-0.421,-0.309 -0.652,-1.064 -0.652,-2.137c0,-1.165 -0.239,-1.864 -0.8,-2.345c-0.612,-0.524 -0.8,-1.18 -0.8,-2.796c0,-1.578 -0.202,-2.313 -0.8,-2.911c-0.533,-0.533 -0.8,-1.333 -0.8,-2.4v-1.6h15.6h15.6v12.4M274.4,233.6v12.4h-18.8h-18.8v-12.4v-12.4h18.8h18.8v12.4M321.2,222.8c0,1.333 -0.133,1.6 -0.8,1.6c-0.645,0 -0.8,0.267 -0.8,1.373c0,1.022 -0.205,1.438 -0.8,1.627c-0.588,0.187 -0.8,0.605 -0.8,1.58c0,0.99 -0.203,1.38 -0.8,1.536c-0.606,0.159 -0.8,0.546 -0.8,1.6c0,1.054 -0.194,1.441 -0.8,1.6c-0.583,0.152 -0.8,0.546 -0.8,1.447c0,0.704 -0.345,1.582 -0.8,2.037c-0.44,0.44 -0.8,1.231 -0.8,1.757c0,0.527 -0.267,1.06 -0.593,1.185c-0.326,0.125 -0.709,0.954 -0.851,1.843c-0.142,0.888 -0.393,1.615 -0.559,1.615c-0.165,0 -0.524,0.54 -0.797,1.2l-0.497,1.2h-6.152h-6.151v-12.4v-12.4h11.8h11.8v1.6" id="path4" fill="#fcc419"></path></g></g></g></svg>